<svg width="1600" height="1200" viewBox="0 0 1600 1200" fill="none" xmlns="http://www.w3.org/2000/svg">
  <rect width="1600" height="1200" fill="#FFF6F8"/>
  <rect x="84" y="84" width="1432" height="1032" rx="68" fill="url(#bg2)"/>
  <rect x="176" y="188" width="1248" height="812" rx="48" fill="#FFFFFF" opacity="0.68"/>
  <rect x="802" y="276" width="472" height="560" rx="64" fill="#FCE4EC"/>
  <rect x="282" y="660" width="420" height="182" rx="58" fill="#EEDFF8"/>
  <circle cx="470" cy="392" r="118" fill="#F7C7A4"/>
  <path d="M368 372C382 312 432 286 478 294C518 300 560 334 546 398C512 384 472 376 438 378C412 380 388 384 368 372Z" fill="#6A3257"/>
  <circle cx="428" cy="402" r="8" fill="#43203A"/>
  <circle cx="506" cy="402" r="8" fill="#43203A"/>
  <path d="M430 448C444 464 492 464 506 448" stroke="#6A3257" stroke-width="10" stroke-linecap="round"/>
  <path d="M406 516H536C576 516 608 548 608 588V890H334V588C334 548 366 516 406 516Z" fill="#FFFFFF"/>
  <path d="M472 534L504 602H440L472 534Z" fill="#CC3771"/>
  <rect x="842" y="502" width="298" height="204" rx="86" fill="#FFFFFF"/>
  <ellipse cx="990" cy="578" rx="92" ry="108" fill="#F5C8A0"/>
  <path d="M900 562C918 512 964 490 1000 496C1042 504 1080 534 1074 592C1044 580 1014 574 980 576C946 578 920 582 900 562Z" fill="#7E2F66"/>
  <circle cx="956" cy="586" r="8" fill="#43203A"/>
  <circle cx="1024" cy="586" r="8" fill="#43203A"/>
  <path d="M962 632C978 648 1002 648 1018 632" stroke="#7E2F66" stroke-width="9" stroke-linecap="round"/>
  <rect x="1110" y="276" width="180" height="164" rx="32" fill="#FFF9FA"/>
  <rect x="1140" y="314" width="120" height="22" rx="11" fill="#F4D5E2"/>
  <rect x="1140" y="354" width="94" height="18" rx="9" fill="#EADBE4"/>
  <rect x="1140" y="388" width="108" height="18" rx="9" fill="#EADBE4"/>
  <defs>
    <linearGradient id="bg2" x1="150" y1="96" x2="1476" y2="1116" gradientUnits="userSpaceOnUse">
      <stop stop-color="#FFF8FB"/>
      <stop offset="0.5" stop-color="#FBE8EF"/>
      <stop offset="1" stop-color="#F0E4FB"/>
    </linearGradient>
  </defs>
</svg>
