<svg width="1600" height="1200" viewBox="0 0 1600 1200" fill="none" xmlns="http://www.w3.org/2000/svg">
  <rect width="1600" height="1200" fill="#FAEFF4"/>
  <rect x="94" y="94" width="1412" height="1012" rx="64" fill="url(#bg1)"/>
  <circle cx="308" cy="228" r="122" fill="#F7D6E2" opacity="0.7"/>
  <circle cx="1296" cy="296" r="156" fill="#E9D8F6" opacity="0.7"/>
  <rect x="230" y="204" width="300" height="604" rx="150" fill="#FFF9FA"/>
  <ellipse cx="380" cy="316" rx="104" ry="112" fill="#F4C5A1"/>
  <path d="M288 300C304 238 360 210 414 218C452 224 492 252 478 320C448 306 406 298 370 302C338 306 314 314 288 300Z" fill="#6B2A57"/>
  <path d="M340 360C352 348 366 342 382 342C398 342 412 348 424 360" stroke="#6B2A57" stroke-width="10" stroke-linecap="round"/>
  <circle cx="344" cy="332" r="8" fill="#43203A"/>
  <circle cx="420" cy="332" r="8" fill="#43203A"/>
  <path d="M330 440H436C464 440 486 462 486 490V760H280V490C280 462 302 440 330 440Z" fill="#FFFFFF"/>
  <path d="M332 440H436C464 440 486 462 486 490V760H280V490C280 462 302 440 330 440Z" stroke="#F3CEDC" stroke-width="8"/>
  <path d="M380 456L404 510H356L380 456Z" fill="#CC3771"/>
  <path d="M300 488H460" stroke="#E8D7E0" stroke-width="6"/>
  <rect x="566" y="240" width="804" height="520" rx="52" fill="#FFFFFF" opacity="0.72"/>
  <rect x="642" y="304" width="382" height="72" rx="24" fill="#F9E1EA"/>
  <rect x="642" y="408" width="534" height="32" rx="16" fill="#F0E2EA"/>
  <rect x="642" y="466" width="430" height="32" rx="16" fill="#F0E2EA"/>
  <rect x="642" y="524" width="470" height="32" rx="16" fill="#F0E2EA"/>
  <rect x="1120" y="330" width="170" height="300" rx="78" fill="#FFF9FA"/>
  <ellipse cx="1205" cy="390" rx="72" ry="82" fill="#F5C7A0"/>
  <path d="M1140 376C1158 330 1194 310 1232 318C1268 324 1298 350 1290 398C1256 390 1224 390 1194 392C1170 394 1154 390 1140 376Z" fill="#7E2F66"/>
  <circle cx="1178" cy="394" r="7" fill="#43203A"/>
  <circle cx="1232" cy="394" r="7" fill="#43203A"/>
  <path d="M1178 432C1190 444 1220 444 1232 432" stroke="#7E2F66" stroke-width="8" stroke-linecap="round"/>
  <path d="M1128 486H1282C1304 486 1322 504 1322 526V710H1088V526C1088 504 1106 486 1128 486Z" fill="#FFFFFF"/>
  <path d="M1204 508L1222 548H1186L1204 508Z" fill="#7E2F66"/>
  <defs>
    <linearGradient id="bg1" x1="188" y1="146" x2="1450" y2="1068" gradientUnits="userSpaceOnUse">
      <stop stop-color="#FFF9FA"/>
      <stop offset="0.54" stop-color="#FBE7EF"/>
      <stop offset="1" stop-color="#EFE4F9"/>
    </linearGradient>
  </defs>
</svg>
