<?xml version="1.0" encoding="UTF-8" standalone="no"?>
<!-- Created with Inkscape (http://www.inkscape.org/) -->

<svg
   xmlns:dc="http://purl.org/dc/elements/1.1/"
   xmlns:cc="http://creativecommons.org/ns#"
   xmlns:rdf="http://www.w3.org/1999/02/22-rdf-syntax-ns#"
   xmlns:svg="http://www.w3.org/2000/svg"
   xmlns="http://www.w3.org/2000/svg"
   xmlns:sodipodi="http://sodipodi.sourceforge.net/DTD/sodipodi-0.dtd"
   xmlns:inkscape="http://www.inkscape.org/namespaces/inkscape"
   version="1.1"
   width="260"
   height="65"
   id="svg2"
   xml:space="preserve"
   inkscape:version="0.48.1 "
   sodipodi:docname="Invisalign.svg"><metadata
     id="metadata3052"><rdf:RDF><cc:Work
         rdf:about=""><dc:format>image/svg+xml</dc:format><dc:type
           rdf:resource="http://purl.org/dc/dcmitype/StillImage" /></cc:Work></rdf:RDF></metadata><sodipodi:namedview
     pagecolor="#ffffff"
     bordercolor="#666666"
     borderopacity="1"
     objecttolerance="10"
     gridtolerance="10"
     guidetolerance="10"
     inkscape:pageopacity="0"
     inkscape:pageshadow="2"
     inkscape:window-width="1360"
     inkscape:window-height="706"
     id="namedview3050"
     showgrid="false"
     inkscape:zoom="1.3788817"
     inkscape:cx="371.875"
     inkscape:cy="74.110538"
     inkscape:window-x="-8"
     inkscape:window-y="-8"
     inkscape:window-maximized="1"
     inkscape:current-layer="svg2" /><defs
     id="defs6"><clipPath
       id="clipPath20"><path
         d="M 0,404.656 0,0 l 1858.36,0 0,404.656 -1858.36,0 z"
         id="path22"
         inkscape:connector-curvature="0" /></clipPath></defs><g
     transform="matrix(1.3452722,0,0,-1.3591792,5,60)"
     id="g12"
     style="fill:#003580;fill-opacity:1;stroke:none"><g
       transform="scale(0.1,0.1)"
       id="g14"
       style="fill:#003580;fill-opacity:1;stroke:none"><g
         id="g16"
         style="fill:#003580;fill-opacity:1;stroke:none"><g
           clip-path="url(#clipPath20)"
           id="g18"
           style="fill:#003580;fill-opacity:1;stroke:none"><path
             d="m 1122.7,90.2734 81.6016,0 0,310.113 -81.6016,0 0,-310.113 z"
             id="path24"
             style="fill:#003580;fill-opacity:1;fill-rule:nonzero;stroke:none"
             inkscape:connector-curvature="0" /><path
             d="m 1232.25,90.3906 0,213.0824 81.64,0 0,-213.0824 -81.64,0 z m 41,234.7814 c 27.77,0 44.16,17.793 44.16,39.894 -0.38,22.102 -16.39,39.473 -44.16,39.473 -27.76,0 -44.17,-17.371 -44.17,-39.473 0,-22.101 16.41,-39.894 43.79,-39.894"
             id="path26"
             style="fill:#003580;fill-opacity:1;fill-rule:nonzero;stroke:none"
             inkscape:connector-curvature="0" /><path
             d="m 1488.66,194.664 c 0,-4.723 0,-11.609 -0.76,-16.344 -2.61,-13.32 -14.71,-24.882 -31.67,-24.882 -23.86,0 -38.57,21.003 -38.57,46.374 0,35.247 19.55,50.715 38.21,50.715 16.76,0 28.51,-10.324 32.41,-28.355 0.38,-2.582 0.38,-5.594 0.38,-8.152 l 0,-19.356 z m 81.98,45.141 c 0,38.515 0.94,54.945 1.86,65.312 l -70.8,0 -2.23,-23.32 -0.75,0 c -12.12,16.949 -30.38,28.207 -60.18,28.207 -57.2,0 -104.37,-44.688 -104.37,-111.457 0,-66.859 44.55,-103.7501 96.9,-103.7501 22.92,0 43.78,7.8201 58.5,25.6251 l 0.75,0 0,-9.582 c 0,-35.84 -25.89,-49.4845 -53.11,-49.4845 -26.81,0 -54.58,10.1367 -68.01,18.039 L 1353.75,17.6758 C 1374.42,6.43359 1408.15,0 1440.21,0 c 32.98,0 68.38,4.72656 95.4,27.1953 28.14,24.1992 35.03,62.7539 35.03,98.8397"
             id="path28"
             style="fill:#003580;fill-opacity:1;fill-rule:nonzero;stroke:none"
             inkscape:connector-curvature="0" /><path
             d="m 1598.58,229.254 c 0,30.297 -0.92,54.984 -1.84,74.055 l 70.61,0 3.35,-28.407 1.69,0 c 6.52,9.106 27.39,33.383 68.02,33.383 50.85,0 82.54,-32.937 82.54,-95.254 l 0,-122.7576 -81.82,0 0,110.6446 c 0,27.672 -10.06,42.363 -30.38,42.363 -17.88,0 -25.33,-12.551 -28.68,-20.73 -1.85,-3.903 -1.85,-9.52 -1.85,-14.297 l 0,-117.9806 -81.64,0"
             id="path30"
             style="fill:#003580;fill-opacity:1;fill-rule:nonzero;stroke:none"
             inkscape:connector-curvature="0" /><path
             d="m 1837.3,262.754 c -10.44,0 -18.64,8.363 -18.64,18.715 0,10.269 8.2,18.59 18.64,18.59 10.24,0 18.45,-8.321 18.45,-18.59 0,-10.352 -8.21,-18.715 -18.45,-18.715 z m 0,-2.496 c 11.71,0 21.06,9.453 21.06,21.211 0,11.625 -9.35,21.16 -21.06,21.16 -11.73,0 -21.26,-9.535 -21.26,-21.16 0,-11.758 9.53,-21.211 21.26,-21.211 z m 3.35,20.289 c 4.29,0.074 7.46,1.812 7.46,6.465 0,2.019 -0.94,4.109 -2.62,5.097 -1.87,1.059 -3.73,1.153 -5.77,1.153 l -10.44,0 0,-23.668 2.98,0 0,10.953 5.42,0 6.7,-10.953 3.35,0 -7.08,10.953 z m -8.39,2.258 0,8.39 6.7,0 c 2.98,0 6.16,-0.441 6.16,-4.109 0,-4.867 -5.02,-4.281 -8.38,-4.281"
             id="path32"
             style="fill:#003580;fill-opacity:1;fill-rule:nonzero;stroke:none"
             inkscape:connector-curvature="0" /><path
             d="m 1022.27,173.652 c 0,-3.816 0,-8.097 -0.77,-11.554 -3.54,-12.481 -16.4,-21.93 -29.059,-21.93 -15.086,0 -23.293,6.875 -23.293,18.953 0,17.18 17.329,26.231 53.122,26.231 l 0,-11.7 z m 78.79,39.754 c 0,56.965 -31.1,93.824 -104.146,93.824 -47.703,0 -79.394,-12.546 -93.363,-19.933 l 14.344,-51.02 c 13.992,7.754 40.804,16.766 64.671,16.766 32.054,0 37.084,-9.484 37.084,-17.215 l 0,-1.269 c -80.502,0 -131.755,-26.352 -131.755,-83.204 0,-34.578 27.769,-67.0894 74.71,-67.0894 24.25,0 46.785,6.086 62.255,23.4104 l 1.86,0 4.29,-18.4768 73.42,0 c -2.05,9.4922 -3.37,30.3128 -3.37,52.8048"
             id="path34"
             style="fill:#003580;fill-opacity:1;fill-rule:nonzero;stroke:none"
             inkscape:connector-curvature="0" /><path
             d="m 703.062,161.277 c 13.422,-8.132 44.708,-17.625 65.407,-17.625 17.883,0 24.207,3.426 24.207,10.774 0,7.32 -4.278,10.308 -28.871,16.773 -49.938,12.934 -69.524,38.789 -68.957,65.949 0,43.239 38.961,73.989 97.828,73.989 29.082,0 55.539,-6.512 69.492,-13.024 l -13.012,-54.5 c -10.82,5.153 -33.926,12.93 -52.929,12.93 -13.418,0 -22.008,-2.59 -22.008,-11.234 0,-6.868 7.297,-11.192 34.676,-18.532 44.535,-12.054 63.175,-33.203 63.718,-66.765 0,-39.36 -31.672,-71.8479 -103.234,-71.8479 -33.332,0 -61.102,6.9023 -80.313,16.0629"
             id="path36"
             style="fill:#003580;fill-opacity:1;fill-rule:nonzero;stroke:none"
             inkscape:connector-curvature="0" /><path
             d="m 591.238,90.5547 0,213.0583 81.821,0 0,-213.0583 -81.821,0 z m 41.188,234.7773 c 27.586,0 44.156,17.773 44.156,39.902 -0.543,22.094 -16.57,39.422 -44.156,39.422 -27.762,0 -44.336,-17.328 -44.336,-39.422 0,-22.129 16.574,-39.902 43.773,-39.902"
             id="path38"
             style="fill:#003580;fill-opacity:1;fill-rule:nonzero;stroke:none"
             inkscape:connector-curvature="0" /><path
             d="m 415.523,303.473 26.848,-92.262 c 4.84,-16.012 7.828,-31.594 10.434,-46.309 l 1.683,0 c 2.602,15.567 5.215,29.848 9.676,46.309 l 24.219,92.262 87.597,0 -84.234,-213.0824 -84.051,0 -81.418,213.0824"
             id="path40"
             style="fill:#003580;fill-opacity:1;fill-rule:nonzero;stroke:none"
             inkscape:connector-curvature="0" /><path
             d="m 106.754,230.453 c 0,30.317 -0.914,54.985 -1.664,74.055 l 70.441,0 3.36,-28.406 1.855,0 c 6.32,9.101 27.203,33.386 67.828,33.386 50.875,0 82.543,-32.941 82.543,-95.261 l 0,-122.7817 -81.793,0 0,110.6717 c 0,27.68 -9.867,42.363 -30.379,42.363 -17.886,0 -25.336,-12.546 -28.695,-20.761 -1.859,-3.899 -1.859,-9.492 -1.859,-14.27 l 0,-118.0037 -81.637,0"
             id="path42"
             style="fill:#003580;fill-opacity:1;fill-rule:nonzero;stroke:none"
             inkscape:connector-curvature="0" /><path
             d="m 3.17578,89.1992 0,213.0508 81.60152,0 0,-213.0508 -81.60152,0 z M 44.1562,323.969 c 27.7579,0 44.3555,17.773 44.3555,39.902 -0.5586,22.102 -16.5976,39.473 -44.3555,39.473 C 16.5781,403.344 0,385.973 0,363.871 0,341.742 16.5781,323.969 43.7969,323.969"
             id="path44"
             style="fill:#003580;fill-opacity:1;fill-rule:nonzero;stroke:none"
             inkscape:connector-curvature="0" /></g></g></g></g></svg>