<?xml version="1.0" encoding="utf-8"?>
<!-- Generator: Adobe Illustrator 16.0.0, SVG Export Plug-In . SVG Version: 6.00 Build 0)  -->
<!DOCTYPE svg PUBLIC "-//W3C//DTD SVG 1.1//EN" "http://www.w3.org/Graphics/SVG/1.1/DTD/svg11.dtd">
<svg version="1.1" id="Layer_1" xmlns="http://www.w3.org/2000/svg" xmlns:xlink="http://www.w3.org/1999/xlink" x="0px" y="0px"
	 width="456.968px" height="162.228px" viewBox="0 0 456.968 162.228" enable-background="new 0 0 456.968 162.228"
	 xml:space="preserve">
<g>
	<g>
		<g>
			<path fill="#939598" d="M73.461,124.718l-7.929,37.51h7.886l7.92-37.51H73.461z"/>
		</g>
		<g>
			<path fill="#939598" d="M125.854,124.718c0,0-12.535,21.012-14.275,23.934c-0.559-3.284-4.064-23.934-4.064-23.934H96.556
				l-7.935,37.51h7.575c0,0,4.534-21.417,5.708-26.964c0.86,5.591,4.148,26.964,4.148,26.964h5.511c0,0,12.161-21.086,15.396-26.696
				c-1.299,6.15-5.646,26.696-5.646,26.696h7.583l7.924-37.51H125.854z"/>
		</g>
		<path fill="#939598" d="M174.677,128.298c-1.928-2.376-5.453-3.58-10.48-3.58h-12.715l-7.927,37.51h7.896
			c0,0,2.927-13.886,3.147-14.942c0.89,0,3.999,0,3.999,0c6.983,0,15.271-1.28,17.376-11.259c0.208-0.983,0.314-1.911,0.314-2.776
			C176.288,131.283,175.75,129.623,174.677,128.298z M167.824,135.822c-0.879,4.185-4.814,4.533-8.769,4.533c0,0-1.931,0-2.986,0
			c0.289-1.361,1.646-7.782,1.841-8.704c0.89,0,3.991,0,3.991,0c2.91,0,4.718,0.484,5.525,1.479c0.345,0.43,0.52,0.968,0.52,1.631
			C167.946,135.086,167.904,135.438,167.824,135.822z"/>
		<g>
			<path fill="#939598" d="M206.109,162.228l1.522-7.268h-17.006c0.345-1.636,6.396-30.242,6.396-30.242h-7.885l-7.921,37.51
				H206.109z"/>
		</g>
		<path fill="#939598" d="M241.869,124.718h-6.519l-24.241,37.51h8.896c0,0,4.62-7.643,5.006-8.277h14.642
			c0.193,1.004,1.608,8.277,1.608,8.277h8.835L241.869,124.718z M229.229,147.014c0.976-1.633,5.666-9.488,7.109-11.899
			c0.454,2.718,1.773,10.618,1.986,11.899H229.229z"/>
		<g>
			<path fill="#939598" d="M292.168,124.718c0,0-4.623,21.853-5.357,25.316c-1.438-3.26-11.161-25.316-11.161-25.316h-9.557
				l-7.928,37.51h7.89c0,0,4.791-22.653,5.535-26.182c1.442,3.329,11.339,26.182,11.339,26.182h9.203l7.931-37.51H292.168z"/>
		</g>
		<g>
			<path fill="#939598" d="M308.802,124.718l-1.536,7.243c0,0,9.556,0,11.054,0c-0.347,1.638-6.396,30.267-6.396,30.267h7.883
				c0,0,6.166-29.168,6.396-30.267c1.045,0,11.049,0,11.049,0l1.534-7.243H308.802z"/>
		</g>
	</g>
	<g>
		<path fill="#F26521" d="M193.479,30.301L193.479,30.301c-0.797-0.568-8.178-5.56-21.761-5.56c-7.442,0-25.154,1.994-28.9,20.479
			c-1.67,8.25,2.22,15.608,11.249,21.273c5.004,3.134,14.314,8.967,12.607,15.48c-1.501,5.743-9.21,6.787-13.671,6.896
			c-7.066,0.175-16.299-4.006-17.218-9.062c0.044-0.308,0.086-0.615,0.125-0.921c0.005-0.017,0.026-0.469,0.188-3.767
			c0-8.79-5.398-16.975-15.205-23.057c-10.635-6.6-13.548-9.55-13.548-13.727l0.119-1.644c0.704-5.116,5.679-8.598,12.379-8.654
			c10.084-0.087,17.735,5.911,17.811,5.971l0.978,0.795l0.458-1.171c0-0.002,5.757-15.191,5.757-15.191l-0.542-0.411
			c-0.385-0.289-9.577-7.024-25.394-7.024c-14.391,0-31.917,6.974-33.948,26.623c-0.912,8.805,3.306,16.809,11.884,22.532
			l0.721,0.478c6.213,4.142,16.604,11.062,13.986,18.88c-1.8,5.397-7.099,8.368-14.922,8.368c-7.805,0-16.721-4.535-19.83-11.373
			c0.014-0.044,0.03-0.091,0.044-0.134c0.61-1.799,1.633-4.809,2.331-11.55c0.001-0.004,0.396-5.836,0.396-5.836
			c0-8.408-2.628-16.006-7.596-21.985c-6.288-7.546-15.98-11.946-26.593-12.073C22.285,24.831,6.172,38.213,1.176,61.649
			c-2.683,12.563-0.754,23.443,5.58,31.462c6.409,8.126,14.947,12.104,26.106,12.163c6.092,0.066,21.153-0.986,33.142-11.66
			l-0.041,0.064c9.678,10.256,21.455,13.112,29.448,13.474c9.598,0.438,21.863-1.528,32.396-11.216
			c2.513,2.193,10.611,9.299,25.62,9.759c19.062,0.583,32.795-8.363,34.757-22.624c1.474-10.708-3.576-19.43-15.007-25.919
			c-9.341-5.305-10.492-7.187-9.596-10.903c1.13-4.686,8.269-5.31,10.429-5.39c8.022-0.297,13.814,4.261,14.448,4.78
			c0.007,0.005,1.756,1.338,1.756,1.338l4.037-16.005C194.192,30.813,193.479,30.301,193.479,30.301z M56.258,64.954
			c-0.799,5.903-4.749,25.111-21.974,24.456c-3.955-0.161-6.965-1.521-8.944-4.042c-2.107-2.682-3.178-6.674-3.178-11.864
			c0-3.791,0.588-7.5,1.079-9.941c2.735-13.52,11.026-22.6,20.631-22.6c4.193,0,7.385,1.224,9.49,3.641
			C56.667,48.387,57.616,55.042,56.258,64.954z"/>
		<g>
			<path fill="#F26521" d="M260.147,44.782l2.895-15.033h-62.439l-2.837,15.033c0,0,19.682,0,20.047,0
				c-0.075,0.361-12.153,58.472-12.153,58.472h22.576c0,0,12.137-58.232,12.188-58.472H260.147z"/>
		</g>
		<g>
			<path fill="#F26521" d="M340.954,62.728c0.31,1.274,9.824,35.77,9.824,35.77l6.326-0.056l22.16-36.008l-8.187,40.82h20.138
				l14.713-74.387l-20.709,0.929l-24.597,38.988l-10.81-38.988l-18.492,0l-14.949,73.458h16.399L340.954,62.728z"/>
		</g>
		<g>
			<path fill="#F26521" d="M282.228,73.073c0.247,0,27.274,0,27.274,0l2.915-14.771c0,0-26.829,0-27.193,0
				c0.068-0.337,2.888-13.288,2.936-13.521c0.246,0,29.637,0,29.637,0l3.125-15.033h-50.949l-15.153,73.489h51.038l2.926-14.96
				c0,0-29.282,0-29.646,0L282.228,73.073z"/>
		</g>
		<path fill="#F26521" d="M456.204,18.004c-0.654-2.359-2.632-5.252-4.51-7.053c-4.648-4.454-12.166-5.408-18.303-1.244
			c-1.999,1.364-3.554,3.384-3.869,4.336c-0.229,0.695,0.154,0.851,0.464,0.578c0.578-0.519,1.056-1.048,1.71-1.521
			c3.96-2.845,9.943-1.847,12.881,2.536c2.925,4.369,1.823,10.116-2.752,12.726c-5.24,3-12.566,1.255-15.434-5.35
			c-2.06-4.741-1.529-11.954,4.194-16.801c3.88-3.264,8.608-4.15,12.989-3.531c1.935,0.273,4.259,1.162,5.293,1.775
			c1.309,0.791,1.427-0.71-1.957-2.383c-6.449-3.194-15.271-2.735-21.811,1.65c-9.508,6.384-12.04,19.255-5.667,28.771
			c6.379,9.522,19.262,12.047,28.777,5.672C455.464,33.293,458.525,26.31,456.204,18.004z"/>
	</g>
</g>
</svg>
