<svg xmlns="http://www.w3.org/2000/svg" width="188.727" height="80" viewBox="0 0 188.727 80">
  <g id="scheu-dental" transform="translate(-16.151 -36.475)">
    <g id="Gruppe_16" data-name="Gruppe 16" transform="translate(16.151 36.475)">
      <path id="Pfad_1" data-name="Pfad 1" d="M76.12,33.147,98.834,10.6h11.023L87.143,33.147ZM18.5,90.6,41.047,67.886H52.07L29.523,90.6Z" transform="translate(12.398 -10.6)" fill="#e30613" fill-rule="evenodd"/>
      <path id="Pfad_2" data-name="Pfad 2" d="M86.387,33.147,109.1,10.6h33.236L119.456,33.147ZM28.6,90.6,51.314,68.053H84.55L62,90.6Z" transform="translate(19.166 -10.6)" fill="#e30613" fill-rule="evenodd"/>
      <path id="Pfad_3" data-name="Pfad 3" d="M23.4,36.02c0-7.683,4.509-9.52,11.691-9.52h9.186c10.689,0,12.86,2.171,13.027,8.852v.5H48.452l-.167-.5c-.167-1-.835-1.5-3.173-1.5H36.594c-3.674,0-4.342,1.5-4.342,4.509V41.03c0,3.507.668,4.509,3.841,4.509h8.351c3.173,0,3.841-.334,4.008-1.837l.167-.5h8.852v1.837c0,4.509-1.837,8.017-9.854,8.017H35.091c-7.182,0-11.691-1.837-11.691-9.52V36.02Z" transform="translate(15.681 0.055)"/>
      <path id="Pfad_4" data-name="Pfad 4" d="M0,44.571H8.852l.167.5c.167,1.169.835,1.336,2.839,1.336h9.52a6.882,6.882,0,0,0,2-.167,1.113,1.113,0,0,0,.835-1.169c0-.835-.167-1.169-1.169-1.5-1.5-.334-4.175-.334-9.186-.334C2,43.234,0,41.731,0,35.218,0,30.374.668,26.7,10.856,26.7H21.712c9.186,0,10.355,3.173,10.355,7.683v.5H23.215l-.167-.5c-.167-.5-.334-1.169-3.173-1.169H11.19c-1.837,0-2.505.5-2.505,1.336s.167,1.169,1.169,1.5a45.164,45.164,0,0,0,7.683.167c12.025,0,15.532.668,15.532,8.518,0,7.182-2.839,8.351-13.194,8.351H10.522C3.34,53.088,0,51.752,0,45.74Z" transform="translate(0 0.189)"/>
      <path id="Pfad_5" data-name="Pfad 5" d="M47.7,26.7h8.852v8.852h15.2V26.7H80.6V52.587H71.75V43.234h-15.2v9.353H47.7Z" transform="translate(31.966 0.189)"/>
      <path id="Pfad_6" data-name="Pfad 6" d="M71.8,26.7h28.894v6.848H80.652v2.839h19.04v6.18H80.652v3.006h20.543v7.182H71.8Z" transform="translate(48.117 0.189)"/>
      <path id="Pfad_7" data-name="Pfad 7" d="M93.267,26.7h8.852V41.731c0,2.839.835,3.841,3.841,3.841h7.683c2.839,0,3.841-1,3.841-3.841V26.7h8.852V43.4c0,6.514-3.507,9.687-11.023,9.687h-11.19c-7.349,0-11.023-3.173-11.023-9.687l.167-16.7Z" transform="translate(62.391 0.189)"/>
      <path id="Pfad_8" data-name="Pfad 8" d="M24.234,35.551c0-6.848,3.841-8.351,10.689-8.351h9.186c10.021,0,11.691,1.837,11.858,7.182H49.119c-.5-1.5-2.171-1.837-4.175-1.837H36.426c-4.509,0-5.511,2.171-5.511,5.511v2.672c0,3.841.835,5.511,5.01,5.511h8.351c2.839,0,4.509-.167,5.01-2.338h6.848v.835c0,3.841-1.336,7.015-8.852,7.015H34.589c-6.848,0-10.689-1.67-10.689-8.351l.334-7.85Z" transform="translate(16.016 0.524)" fill="#fff"/>
      <path id="Pfad_9" data-name="Pfad 9" d="M.767,45.171H7.615c.5,1.837,2,1.837,3.674,1.837h9.52a6.087,6.087,0,0,0,2.505-.334A2.238,2.238,0,0,0,24.65,44.5c0-1.336-.334-2.171-2.171-2.505-1.5-.334-4.342-.334-9.353-.334C1.435,41.663.6,40.327.6,34.649c0-4.175.167-7.349,9.687-7.349H21.31c8.184,0,9.186,2.505,9.186,6.013H23.648c-.5-1.169-1.67-1.5-4.175-1.5H10.788c-1.837,0-3.507.668-3.507,2.505a2.135,2.135,0,0,0,2,2.505H17.3c12.192,0,14.363.668,14.363,7.349,0,6.18-1.837,7.182-12.192,7.182H10.12C3.105,51.517.767,50.181.767,45.171Z" transform="translate(0.402 0.591)" fill="#fff"/>
      <path id="Pfad_10" data-name="Pfad 10" d="M48.4,27.4h6.681v8.852H72.617V27.4H79.3V51.116H72.617V41.763H55.081v9.353H48.4Z" transform="translate(32.435 0.658)" fill="#fff"/>
      <path id="Pfad_11" data-name="Pfad 11" d="M72.4,27.4H99.122v4.676H79.081v5.177H98.12v4.008H79.081V46.44H99.623v4.843H72.4Z" transform="translate(48.519 0.658)" fill="#fff"/>
      <path id="Pfad_12" data-name="Pfad 12" d="M93.867,27.4h6.681V41.262c0,3.507,1.336,5.01,4.843,5.01h7.683c3.507,0,4.843-1.5,4.843-5.01V27.4H124.6V42.932c0,5.846-3.006,8.685-9.854,8.685h-11.19c-6.848,0-9.854-2.839-9.854-8.685L93.867,27.4Z" transform="translate(62.793 0.658)" fill="#fff"/>
    </g>
  </g>
</svg>
