<svg xmlns="http://www.w3.org/2000/svg" xml:space="preserve" style="fill-rule:evenodd;clip-rule:evenodd;stroke-linejoin:round;stroke-miterlimit:2" viewBox="0 0 15244 5247"><path d="M15244 2975c-550-31-864 37-1093 155v2071h590V3410c98-49 247-52 392 13l111-448ZM13957 4139l-1223 188c41 321 195 479 491 479 184 5 367-35 531-118l133 395c-161 87-386 158-732 158-623 0-981-442-981-1142 0-689 330-1133 917-1133 592 0 891 432 864 1173Zm-550-235c0-392-123-561-339-561-241 0-392 225-371 675l710-114ZM11981 5071V3009h-589v1753c-76 39-162 58-247 53-201 0-278-130-278-290V3009h-592v1472c0 528 277 760 855 760 382 0 666-68 851-170M10046 5080a1667 1667 0 0 1-796 164c-593 0-895-238-895-692 0-567 525-731 1139-793v-102c0-231-142-293-358-293-185 5-366 51-531 133l-130-361c241-111 504-167 769-167 463 0 802 207 802 803v1308Zm-552-234v-797c-355 37-587 124-587 473 0 259 136 370 371 370 86 0 163-15 216-46ZM8145 5204V3667c0-402-231-698-877-698-294-8-587 49-858 167v2068h593V3410c79-31 162-47 247-46 241 0 306 151 306 306v1534h589ZM4765 5173v-392c-39 16-81 24-123 25-133 0-191-90-191-257V3420h314v-411h-314v-632l-590 163v469h-222v411h222v1179c0 339 185 636 614 636 100 1 199-20 290-62M6130 5173v-392c-40 16-82 24-124 25-133 0-191-90-191-257V3420h315v-411h-315v-632l-590 163v469h-222v411h222v1179c0 339 185 636 614 636 101 1 200-20 291-62M3361 5071V3009h-589v1753c-77 39-162 58-247 53-201 0-278-130-278-290V3009h-593v1472c0 528 278 760 855 760 383 0 667-68 852-170M1521 2893v-445H0v445h454v2354h618V2893h449Z" style="fill:#e2001a;fill-rule:nonzero"/><path d="m7577 1485 25-62c46 6 96 9 148 9 710 0 1512-577 1781-1287 18-49 40-96 55-145h16c-25 49-37 96-56 145-268 710 96 1287 809 1287l154-9-24 62c-50-7-96-10-149-10-709 0-1506 577-1774 1287-18 48-34 96-47 145h-46l62-145c268-710-90-1287-800-1287l-154 10Z" style="fill:#e3e4e4;fill-rule:nonzero"/></svg>
