<?xml version="1.0" encoding="utf-8"?>
<!-- Generator: Adobe Illustrator 24.2.3, SVG Export Plug-In . SVG Version: 6.00 Build 0)  -->
<svg version="1.1" id="Layer_1" xmlns="http://www.w3.org/2000/svg" xmlns:xlink="http://www.w3.org/1999/xlink" x="0px" y="0px"
	 viewBox="0 0 194 26" style="enable-background:new 0 0 194 26;" xml:space="preserve">
<style type="text/css">
	.st0{fill:#FFFFFF;}
	.st1{fill:#EC1C24;}
	.st2{fill:#790008;}
</style>
<g>
	<g>
		<rect x="3.2" y="7.9" class="st0" width="10.8" height="10.8"/>
		<polygon class="st1" points="10.4,9.9 4.6,9.9 7.2,13.3 12.9,13.3 		"/>
		<polygon class="st2" points="12.9,13.3 7.2,13.3 4.6,16.6 10.4,16.6 		"/>
	</g>
	<g>
		<path class="st0" d="M41.3,13.2c0.3-0.2,0.8-0.7,0.8-1.4c0-1.2-0.8-2-2.2-2h-2.8v7.1h3c1.3,0,2.2-0.8,2.2-2
			C42.2,13.8,41.7,13.4,41.3,13.2 M38.5,11h1.3c0.5,0,0.9,0.3,0.9,0.8c0,0.5-0.3,0.8-0.9,0.8h-1.3V11z M39.9,15.5h-1.4v-1.7h1.4
			c0.7,0,0.9,0.4,0.9,0.8C40.8,15.1,40.6,15.5,39.9,15.5 M31.5,14.3c-0.1-0.1-2.5-4.5-2.5-4.5h-1.4v7.1h1.4v-4.2
			c0.1,0.2,2.5,4.3,2.5,4.3s2.3-4.1,2.5-4.3v4.2h1.4V9.7H34C34,9.7,31.6,14.2,31.5,14.3 M24.5,16.8h1.4V9.7h-1.4V16.8z M22.1,15.1
			c-0.4,0.3-0.9,0.5-1.5,0.5c-1.3,0-2.3-1-2.3-2.3c0-1.3,1-2.3,2.3-2.3c0.5,0,1,0.2,1.5,0.5l0,0l1-1l0,0c-0.7-0.6-1.5-0.9-2.4-0.9
			c-2.1,0-3.8,1.7-3.8,3.7c0,2.1,1.7,3.7,3.8,3.7c0.9,0,1.8-0.3,2.4-0.9l0,0L22.1,15.1L22.1,15.1z"/>
		<path class="st0" d="M47.7,13.5h-1.9v2.6h1.9c0.9,0,1.4-0.5,1.4-1.3C49.1,14,48.6,13.5,47.7,13.5 M47.6,10.4h-1.8v2.4h1.8
			c0.8,0,1.4-0.4,1.4-1.2C49,10.8,48.4,10.4,47.6,10.4 M47.8,16.8H45V9.7h2.7c1.2,0,2.1,0.7,2.1,1.9c0,0.7-0.4,1.3-1,1.5
			c0.7,0.2,1.2,0.8,1.2,1.7C49.9,16.1,49,16.8,47.8,16.8"/>
		<path class="st0" d="M52.4,14.3h3l-1.5-3.7L52.4,14.3z M51.3,16.8h-0.8l3.1-7h0.7l3.1,7h-0.8l-0.8-1.8h-3.6L51.3,16.8z"/>
		<polygon class="st0" points="63.4,15.7 63.4,15.7 63.4,9.8 64.1,9.8 64.1,16.8 63.2,16.8 59,10.8 59,10.8 59,16.8 58.3,16.8 
			58.3,9.8 59.2,9.8 		"/>
		<polygon class="st0" points="66.6,12.8 66.7,12.8 70,9.8 71,9.8 67.4,12.9 71.2,16.8 70.1,16.8 66.7,13.2 66.6,13.2 66.6,16.8 
			65.8,16.8 65.8,9.8 66.6,9.8 		"/>
	</g>
	<path class="st0" d="M81.7,10.4l-0.1-0.1c-0.1-0.1-0.3-0.2-0.4-0.3c-0.1-0.2-0.3-0.3-0.5-0.3c-0.2,0-0.4,0.2-0.7,0.5
		c-0.1,0.2-0.3,0.3-0.4,0.3c0,0-0.1,0.1-0.1,0.1c0,0,0,0,0,0c-0.3-0.3-0.6-0.5-0.9-0.7c-0.3-0.2-0.6-0.2-1-0.2h0l-0.7,1
		c-0.1,0.1-0.1,0.2-0.2,0.3c-0.1,0.1-0.1,0.2-0.1,0.3v0.2l0.2,0.2c0.1,0.1,0.3,0.2,0.5,0.3v3.8l0,0c0.1,0.3,0.2,0.5,0.3,0.6
		c0.2,0.2,0.5,0.3,0.8,0.3h0.3l0.6-0.8l0.1-0.1l0.1-0.1l0.1,0c0,0,0,0,0.1,0.1l0.2,0.3c0.2,0.3,0.4,0.4,0.6,0.5l0,0h0
		c0.3,0,0.5-0.1,0.7-0.2c0.1-0.1,0.2-0.2,0.3-0.4l0,0v-3.1c0-0.2-0.1-0.4-0.3-0.5c-0.2-0.1-0.4-0.2-0.6-0.2c-0.6,0.1-1,0.5-1.1,1.2
		c0,0.1,0,0.2,0,0.4v0l0.2,0.4c0.2,0.3,0.5,0.5,0.9,0.6v0.6c0,0.2,0,0.3,0,0.3c0,0.1,0,0.1-0.1,0.1c0,0-0.1-0.1-0.2-0.2l-0.1-0.3
		l0,0l-0.3-0.2c-0.1-0.1-0.1-0.1-0.2-0.1c0,0-0.1,0-0.1,0l0,0l0,0c-0.2,0-0.3,0.1-0.5,0.2l-0.2,0.2l-0.3,0.3c0,0-0.1,0-0.2,0.1
		c-0.1,0-0.1-0.1-0.2-0.2l-0.1-0.2l0-3.6l-0.1,0c-0.2,0-0.4-0.1-0.6-0.3l-0.2-0.2l0.1-0.3l0.3-0.4c0.1,0,0.4,0.1,0.6,0.2
		c0.1,0.1,0.3,0.2,0.4,0.3c0.2,0.1,0.3,0.2,0.5,0.4l0.1,0.1l0.4-0.4c0.2-0.2,0.4-0.3,0.5-0.3l0.1,0.1c0.2,0.2,0.4,0.4,0.6,0.4l0,0
		l0,0c0.2,0,0.4-0.1,0.6-0.3c0.2-0.2,0.4-0.4,0.4-0.7v-0.2l-0.1,0.1C81.9,10.4,81.8,10.4,81.7,10.4z M80.3,14l-0.1-0.2
		c0-0.2,0.1-0.4,0.2-0.4c0.1-0.1,0.1-0.1,0.2-0.1l0,0v1C80.5,14.2,80.4,14.1,80.3,14z M89.8,10L89,9.8l-0.3,0h0l-0.2,0.1
		c-0.2,0.1-0.4,0.3-0.6,0.5l-0.2,0.2v-0.1l0,0c-0.2-0.3-0.4-0.4-0.8-0.5c-0.3-0.1-0.7-0.1-1-0.1H85c-0.7,0-1.2,0.2-1.5,0.5
		c-0.2,0.2-0.3,0.5-0.3,0.9v1.9c0,0.3,0.3,0.4,0.7,0.5c0.4,0.1,0.9,0.1,1.5,0.1l0.9,0.2c0.4,0.1,0.5,0.2,0.5,0.3v1.3
		c-0.1,0.2-0.1,0.2-0.2,0.2c-0.1,0-0.2,0-0.4-0.2l-0.2-0.2l0,0l0,0c-0.3-0.1-0.5-0.2-0.6-0.2c-0.1,0-0.3-0.1-0.4-0.1l-0.8-0.1h-0.2
		V14h-0.9v1.1l0,1.6h0.9v-0.9l0.7,0.2c0.6,0.2,1.2,0.4,1.7,0.7l0,0H87c0.3-0.1,0.5-0.2,0.6-0.3c0.1-0.1,0.2-0.3,0.2-0.5V14
		c0-0.4-0.2-0.6-0.6-0.7l-1-0.2c-0.1,0-0.2-0.1-0.4-0.1c-0.1,0-0.4,0-0.7,0c-0.3,0-0.5-0.1-0.7-0.1c-0.1,0-0.1,0-0.1-0.1
		c0,0,0,0,0,0v-1.6l0.2-0.3c0.2-0.2,0.4-0.3,0.6-0.4l0.5,0c0.4,0,0.7,0,1,0.1c0.2,0.1,0.3,0.2,0.4,0.4l-0.4,0.1
		c-0.3,0.1-0.5,0.3-0.5,0.6c0,0.3,0.2,0.6,0.5,1l0.1-0.1l-0.1,0.1l0.2,0.2c0.2,0.1,0.4,0.2,0.6,0.2h0l0,0c0.2-0.1,0.3-0.2,0.3-0.5
		c0-0.2,0.1-0.4,0.1-0.5c0-0.1,0-0.3,0-0.4v-0.2l0.6-0.6l0.2-0.1c0,0,0.1,0,0.1-0.1h0.2c0.2,0,0.4,0.1,0.6,0.2
		c0.2,0.1,0.3,0.2,0.5,0.4v5.5H91v-5.9l0,0C90.7,10.5,90.3,10.2,89.8,10z M99.1,10l-0.8-0.2l-0.3,0h0l-0.2,0.1
		c-0.2,0.1-0.4,0.3-0.6,0.5l0,0c0,0-0.1,0-0.2,0l0,0l-0.5-0.5c-0.1-0.1-0.2-0.1-0.4-0.1c-0.2,0-0.3,0.1-0.6,0.3l-0.7,0.6
		c-0.2-0.2-0.3-0.3-0.4-0.4c-0.1-0.1-0.3-0.2-0.5-0.3c-0.3-0.2-0.6-0.2-1-0.2h0l0,0c-0.2,0.2-0.3,0.4-0.5,0.6
		c-0.1,0.2-0.2,0.3-0.3,0.4C92,11.1,92,11.3,92,11.4v0.2l0.3,0.2c0.2,0.2,0.4,0.3,0.6,0.3l-0.2,0.1l0,0l-0.1,0.1l0,0v4.3h0.9l0-0.1
		l0.1-0.3l0.2-0.6c0.1-0.2,0.2-0.3,0.2-0.3l0.3,0.1l0.3,0.1l0,0l0.3-0.1l0,0l0,0c0.1-0.1,0.1-0.2,0.1-0.4c0-0.2-0.1-0.3-0.2-0.5
		c-0.1-0.1-0.2-0.2-0.4-0.2c-0.2,0-0.3,0-0.5,0.1c-0.1,0.1-0.2,0.2-0.4,0.4v-2.5l0.3-0.2c0.3-0.1,0.6-0.2,0.8-0.2
		c0.3,0,0.5,0,0.8,0.1l0.6,0.2v4.1h1v-4.4l0,0c-0.3-0.3-0.6-0.5-0.9-0.6c-0.3-0.1-0.6-0.1-1-0.1h-0.2c-0.3,0-0.6,0-0.8,0.1l-0.6,0.1
		c-0.2-0.1-0.3-0.2-0.5-0.3l-0.2-0.2c0-0.1,0.1-0.4,0.3-0.6l0.5,0.1c0.4,0.2,0.7,0.4,1.2,0.7l0.1,0.1l0.4-0.5
		c0.2-0.2,0.4-0.4,0.6-0.4L96,11c0.2,0.3,0.4,0.4,0.6,0.5l0,0l0,0c0.1,0,0.2-0.1,0.3-0.1v0.2l0.8-0.7l0.2-0.1c0,0,0.1,0,0.1-0.1h0.2
		c0.2,0,0.4,0.1,0.6,0.2c0.2,0.1,0.3,0.2,0.5,0.4v5.5h1.1v-5.9l0,0C100.1,10.5,99.7,10.2,99.1,10z M103.3,9.8
		c-0.1,0-0.2-0.1-0.3-0.1l-0.4-0.1c-0.3,0-0.6,0.3-0.8,0.9c-0.1,0.1-0.1,0.3-0.2,0.4c-0.1,0.2-0.1,0.3-0.1,0.4l0,0.1l0.1,0
		c0.4,0.1,0.8,0.2,0.9,0.3c0.1,0,0.1,0.1,0.2,0.1c0,0,0,0,0,0v2.3l0,0h-0.1c-0.2,0-0.4,0-0.6,0.1c-0.2,0.1-0.3,0.3-0.3,0.6
		c0,0.4,0.1,0.7,0.2,1.1c0.2,0.4,0.4,0.6,0.7,0.6h0.4c0.3,0,0.5,0,0.6-0.2c0.1-0.1,0.2-0.2,0.2-0.4v-4.4c0-0.2-0.3-0.4-0.8-0.5
		l-0.6-0.2l0.2-0.4c0.2,0,0.3,0.1,0.3,0.1l0.3,0.2l0.2,0.1c0.2,0.1,0.3,0.1,0.4,0.1c0.2,0,0.3-0.1,0.5-0.3c0.1-0.1,0.2-0.4,0.3-0.7
		l0-0.1H104C103.8,10,103.6,9.9,103.3,9.8z M102.6,16c0,0-0.1-0.1-0.1-0.2c-0.1-0.2-0.1-0.4-0.1-0.6l0.1-0.1l0.2,0.1V16z
		 M114.2,17.7c-0.1-0.1-0.3-0.1-0.4-0.1h0l-0.4,0.1c-0.2,0.1-0.3,0.2-0.3,0.3v0l0,0c0,0.1,0.1,0.2,0.2,0.2l0.1,0.1V20
		c0,0.2-0.1,0.2-0.1,0.3l0,0l0,0.1l0,0l0,0c0.1,0.1,0.2,0.2,0.3,0.2l0.4,0.1l0,0l0,0c0.1,0,0.2-0.1,0.3-0.2c0.1-0.1,0.1-0.3,0.1-0.5
		v-2C114.5,17.9,114.4,17.8,114.2,17.7z M110.9,8.6h4l0,0c0.2-0.1,0.3-0.3,0.4-0.4c0.1-0.2,0.1-0.5,0.1-0.9V6.9c0-0.1,0-0.3-0.1-0.4
		l-0.2-0.2c-0.1-0.1-0.2-0.2-0.3-0.2l-0.3,0.1l0,0l0,0c-0.1,0.1-0.1,0.2-0.1,0.3v0l0,0c0,0.1,0.1,0.3,0.2,0.4l0.2,0.2
		c0.1,0.1,0.1,0.2,0.1,0.2v0.3c0,0,0,0.1,0,0.1c-0.4-0.5-0.9-0.9-1.6-1.2c-0.3-0.1-0.6-0.2-1.1-0.3l0,0l0,0
		c-0.7,0.1-1.2,0.3-1.5,0.7c-0.3,0.3-0.5,0.6-0.5,1v0l0.1,0.3C110.4,8.5,110.6,8.6,110.9,8.6z M111.2,7.6c0.3-0.3,0.6-0.4,0.9-0.4
		l0.7,0.2c0.4,0.1,0.8,0.3,1,0.5H111L111.2,7.6z M114.6,9.9c-0.1,0-0.2-0.1-0.2-0.1c-0.1,0-0.1,0-0.3-0.1c-0.3,0-0.5,0.3-0.8,0.9
		c-0.1,0.1-0.1,0.3-0.2,0.4c-0.1,0.2-0.1,0.3-0.1,0.4l0,0.1l0.1,0c0.3,0.1,0.6,0.2,0.8,0.3c0.1,0.1,0.2,0.1,0.3,0.2
		c0.1,0,0.1,0.1,0.1,0.1l0,3.5c-0.1,0.1-0.2,0.2-0.3,0.3c-0.1,0.1-0.2,0.1-0.4,0.1c-0.2,0-0.5,0-0.8-0.1l-0.3-0.1v-3.3
		c0-0.4-0.4-0.6-1.1-0.7l-1-0.1H110c-0.1-0.2-0.2-0.3-0.5-0.4l-0.4-0.1l0.2-0.4c0.3,0,0.4,0.1,0.5,0.1L110,11
		c0.2,0.2,0.4,0.3,0.5,0.3c0.3,0,0.5-0.1,0.7-0.3c0.1-0.1,0.2-0.3,0.3-0.6l0-0.1l-0.7-0.2l-0.9-0.4l-0.3-0.1c-0.3,0-0.5,0.3-0.8,0.9
		c-0.1,0.1-0.1,0.3-0.2,0.4c-0.1,0.2-0.1,0.3-0.1,0.4l0,0.1l0.6,0.1c0.1,0,0.3,0.1,0.3,0.1l0,0c-0.3,0.1-0.5,0.1-0.7,0.3
		c-0.1,0.1-0.2,0.3-0.2,0.5v3.9l0,0c0.1,0.2,0.3,0.3,0.6,0.4l0.4,0c0.3,0,0.5-0.2,0.8-0.6c0.2-0.4,0.4-0.8,0.4-1.1
		c-0.1-0.3-0.2-0.5-0.5-0.6c-0.2-0.1-0.4-0.1-0.6-0.1v-1.7c0-0.1,0.1-0.1,0.1-0.2c0.1,0,0.3-0.1,0.6-0.1l0.8,0.1
		c0.3,0.1,0.3,0.2,0.3,0.2v3.6l0,0c0.1,0.1,0.2,0.2,0.4,0.3c0.3,0.2,0.8,0.3,1.4,0.3h1c0.2,0,0.5-0.1,0.8-0.2
		c0.3-0.1,0.5-0.4,0.6-0.7l-0.1,0h0.1V12c0-0.4-0.3-0.6-0.8-0.7c-0.1,0-0.3-0.1-0.6-0.1l0.2-0.4l0,0h0.1l0.1,0.1l0.1,0.1l0.3,0.2
		c0.2,0.1,0.3,0.2,0.5,0.2c0.2,0,0.3-0.1,0.4-0.2c0.1-0.1,0.2-0.4,0.3-0.7l0-0.1h-0.4L114.6,9.9z M109.6,15.1c0,0,0.1,0,0.2,0.1
		c0,0.2-0.1,0.4-0.4,0.7l-0.2,0.2v-1L109.6,15.1z M124.8,10L124,9.8l-0.3,0h0l-0.2,0.1c-0.2,0.1-0.3,0.2-0.5,0.4l0-0.1l-0.5,0.1
		l-0.7-0.3c-0.1,0-0.2-0.1-0.2-0.1c-0.1,0-0.2,0-0.3-0.1c-0.3,0-0.5,0.3-0.8,0.9c-0.1,0.1-0.1,0.3-0.2,0.4c-0.1,0.2-0.1,0.3-0.1,0.4
		l0,0.1l0.1,0c0.4,0.1,0.7,0.2,0.9,0.3c0.1,0,0.1,0.1,0.2,0.1c0,0,0,0,0,0.1v0.8h-2.4V12c0-0.2-0.3-0.4-0.7-0.6
		c-0.1,0-0.2-0.1-0.3-0.1c-0.1,0-0.2,0-0.3-0.1l0.2-0.4l0.3,0.1c0.2,0.1,0.3,0.1,0.4,0.2l0.1,0.1c0.2,0.1,0.3,0.1,0.4,0.1
		c0.2,0,0.3-0.1,0.5-0.2c0.1-0.1,0.2-0.4,0.3-0.7l0-0.1l-0.5,0.1l-0.7-0.3c-0.1,0-0.2-0.1-0.2-0.1c-0.1,0-0.1,0-0.3-0.1
		c-0.3,0-0.5,0.3-0.8,0.9c-0.1,0.1-0.1,0.3-0.2,0.4c-0.1,0.2-0.1,0.3-0.1,0.4l0,0.1l0.9,0.3l0.2,0.2v2.2h-0.3c-0.2,0-0.3,0-0.4,0.1
		c-0.1,0.1-0.2,0.3-0.2,0.5c0,0.2,0,0.4,0.1,0.6c0,0.2,0.1,0.4,0.1,0.6c0.1,0.4,0.3,0.7,0.6,0.7l0.1,0l0.2,0h0.4l0,0
		c0.1,0,0.2-0.1,0.3-0.2l0,0v-2.9h2.4l0,0.6H121c-0.2,0-0.3,0-0.4,0.1c-0.1,0.1-0.2,0.3-0.2,0.5c0,0.2,0,0.4,0.1,0.6
		c0,0.2,0.1,0.4,0.1,0.6c0.1,0.4,0.3,0.7,0.6,0.7l0.1,0l0.2,0l0.5-0.1c0.1-0.1,0.2-0.1,0.3-0.2l0,0v-4.6c0-0.3-0.3-0.4-0.7-0.5
		l-0.6-0.1l0.2-0.4l0.2,0.1l0.4,0.2l0.1,0.1c0.1,0.1,0.3,0.1,0.4,0.1c0.2,0,0.3-0.1,0.4-0.2v0.5l0.8-0.7l0.2-0.1c0,0,0.1,0,0.1-0.1
		h0.2c0.2,0,0.4,0.1,0.6,0.2c0.2,0.1,0.3,0.2,0.5,0.4v5.5h1.1v-5.9l0,0C125.7,10.5,125.3,10.2,124.8,10z M117.8,15.6
		c-0.1-0.2-0.1-0.4-0.1-0.6c0,0,0,0,0.1,0l0.2,0l0,1C117.9,15.9,117.9,15.8,117.8,15.6z M121.3,15.9c-0.1-0.3-0.2-0.6-0.2-0.9
		c0,0,0,0,0,0l0.2,0V15.9z M134.6,9.9c-0.1,0-0.2-0.1-0.3-0.1l-0.5-0.2h0c-0.3,0-0.5,0.3-0.8,0.9c-0.1,0.1-0.1,0.3-0.2,0.4
		c-0.1,0.2-0.1,0.3-0.1,0.4l0,0.1l0.1,0c0.5,0.2,0.9,0.3,1,0.4c0,0,0,0,0.1,0.1v3.5c0,0.1-0.1,0.2-0.3,0.3c-0.2,0.1-0.5,0.2-0.8,0.2
		c-0.3,0-0.5-0.1-0.7-0.2l-0.2-0.2l0-1.8v-1.8c0-0.2-0.3-0.4-0.7-0.7l-0.6-0.3l0.2-0.5l0.2,0.1l0.4,0.2l0.1,0.1
		c0.1,0.1,0.3,0.1,0.4,0.1c0.2,0,0.3-0.1,0.5-0.2c0.1-0.1,0.2-0.4,0.3-0.7l0-0.1h-0.4l-0.7-0.3c-0.1,0-0.2-0.1-0.2-0.1
		c-0.1,0-0.1,0-0.3-0.1c-0.3,0-0.5,0.3-0.8,0.9c-0.1,0.1-0.1,0.3-0.2,0.4c-0.1,0.2-0.1,0.3-0.1,0.4l0,0.1l0.1,0
		c0.4,0.1,0.7,0.2,0.9,0.3c0.1,0.1,0.2,0.2,0.2,0.2v3.5c-0.1,0.2-0.3,0.3-0.5,0.4c-0.1,0-0.4,0.1-0.6,0.1l-0.5,0.1
		c-0.2,0-0.5-0.1-0.7-0.2l-0.2-0.2v-3.1c0.4-0.3,0.7-0.5,0.9-0.7c0.2-0.2,0.3-0.5,0.3-0.7c0-0.3-0.2-0.7-0.6-1l-0.6-0.4l-0.3-0.1
		c-0.3,0-0.5,0.2-0.6,0.4c-0.1,0.3-0.1,0.6-0.1,0.9v4.8l0,0c0.1,0.2,0.2,0.4,0.2,0.5c0.3,0.3,0.9,0.5,1.6,0.5l0.4,0l1.1-0.1
		c0.4-0.1,0.7-0.2,0.9-0.4c0,0.1,0.2,0.3,0.3,0.3c0.2,0.1,0.5,0.2,0.9,0.2h0.4c0.4,0,0.8-0.1,1.2-0.2c0.2-0.1,0.4-0.2,0.5-0.4l0,0
		v-4.3c0-0.2-0.3-0.4-0.8-0.5l-0.6-0.2l0.2-0.4h0.2c0.1,0,0.2,0.1,0.3,0.2l0.1,0.1l0,0l0,0c0.1,0.1,0.2,0.1,0.3,0.1
		c0.2,0,0.3-0.1,0.5-0.2c0.1-0.1,0.2-0.4,0.3-0.7l0-0.1l-0.5,0.1C134.8,10,134.7,10,134.6,9.9z M128.2,10.7L128.2,10.7
		c0.2,0.1,0.3,0.2,0.3,0.3v0.1l-0.3,0.4V10.7z M141.4,9.9c-0.1,0-0.2-0.1-0.2-0.1c-0.1,0-0.1,0-0.3-0.1c-0.3,0-0.5,0.3-0.8,0.9
		c-0.1,0.1-0.1,0.3-0.2,0.4c-0.1,0.2-0.1,0.3-0.1,0.4l0,0.1l0.1,0c0.4,0.1,0.7,0.2,0.9,0.3c0.1,0,0.1,0.1,0.2,0.1c0,0,0,0,0,0v0.8
		h-2.4V12c0-0.2-0.3-0.4-0.7-0.6c-0.1,0-0.2-0.1-0.3-0.1c-0.1,0-0.2,0-0.3-0.1l0.2-0.4l0.3,0.1c0.2,0.1,0.3,0.1,0.4,0.2l0.1,0.1
		c0.2,0.1,0.3,0.1,0.4,0.1c0.2,0,0.3-0.1,0.5-0.2c0.1-0.1,0.2-0.4,0.3-0.7l0-0.1l-0.5,0.1L138,9.9c-0.1,0-0.2-0.1-0.2-0.1
		c-0.1,0-0.1,0-0.3-0.1c-0.3,0-0.5,0.3-0.8,0.9c-0.1,0.1-0.1,0.3-0.2,0.4c-0.1,0.2-0.1,0.3-0.1,0.4l0,0.1l0.9,0.3l0.3,0.2v2.2l0,0
		h-0.3c-0.2,0-0.3,0-0.4,0.1c-0.1,0.1-0.2,0.3-0.2,0.5c0,0.2,0,0.4,0.1,0.6c0,0.2,0.1,0.4,0.1,0.6c0.1,0.4,0.3,0.7,0.6,0.7l0.1,0
		l0.2,0h0.4l0,0c0.1,0,0.2-0.1,0.3-0.2l0,0v-2.9h2.4l0,0.6l-0.1,0h-0.3c-0.2,0-0.3,0-0.4,0.1c-0.1,0.1-0.2,0.3-0.2,0.5
		c0,0.2,0,0.4,0.1,0.6c0,0.2,0.1,0.4,0.1,0.6c0.1,0.4,0.3,0.7,0.6,0.7l0.1,0l0.2,0l0.5-0.1c0.1-0.1,0.2-0.1,0.3-0.2l0,0v-4.6
		c0-0.3-0.3-0.4-0.7-0.5l-0.6-0.1l0.2-0.4l0.2,0.1l0.4,0.2l0.1,0.1c0.1,0.1,0.3,0.1,0.4,0.1c0.2,0,0.3-0.1,0.5-0.2
		c0.1-0.2,0.2-0.4,0.3-0.7l0-0.1l-0.5,0.1L141.4,9.9z M137.5,16c0-0.1-0.1-0.2-0.1-0.4c-0.1-0.2-0.1-0.4-0.1-0.6c0,0,0,0,0.1,0
		l0.2,0V16z M140.8,15.9c-0.1-0.3-0.2-0.6-0.2-0.9c0,0,0,0,0,0l0.2,0V15.9z M137.5,8.6h4l0,0l0.2-0.4l0,0c-0.3-0.7-0.9-1.2-1.8-1.5
		c-0.3-0.1-0.7-0.2-1.2-0.3l0,0l0,0c-0.7,0.1-1.2,0.3-1.5,0.7c-0.3,0.3-0.5,0.6-0.5,1v0l0.1,0.3C137,8.5,137.3,8.6,137.5,8.6z
		 M137.9,7.6c0.3-0.3,0.6-0.4,0.9-0.4l0.7,0.2c0.4,0.2,0.8,0.3,1,0.5h-2.8L137.9,7.6z M148.7,10c-0.1,0-0.2-0.1-0.3-0.1L148,9.7l0,0
		h0c-0.3,0-0.5,0.3-0.8,0.9c-0.1,0.1-0.1,0.3-0.2,0.4c-0.1,0.2-0.1,0.3-0.1,0.4l0,0.1l0.9,0.3c0.2,0.1,0.2,0.2,0.2,0.2v1.2h-2.5
		v-1.1c0-0.2-0.3-0.4-0.7-0.7l-0.5-0.3l0.2-0.5l0.2,0c0.1,0,0.2,0.1,0.3,0.2l0.1,0.1c0.1,0.1,0.3,0.1,0.4,0.1c0.2,0,0.3-0.1,0.5-0.2
		c0.1-0.1,0.2-0.4,0.3-0.7l0-0.1h-0.4l-0.7-0.3c-0.1-0.1-0.2-0.1-0.2-0.1c-0.1,0-0.1,0-0.3-0.1c-0.3,0-0.5,0.3-0.8,0.9
		c-0.1,0.1-0.1,0.3-0.2,0.4c-0.1,0.2-0.1,0.3-0.1,0.4l0,0.1l0.1,0c0.3,0.1,0.6,0.2,0.7,0.3c0.1,0.1,0.1,0.1,0.2,0.1c0,0,0,0,0,0
		l0,4.1l0,0c0.2,0.2,0.3,0.3,0.5,0.3c0.4,0.2,0.9,0.3,1.7,0.3l1.2-0.1c0.4-0.1,0.8-0.3,1-0.5l0,0v-4.2c0-0.3-0.3-0.4-0.7-0.6
		c-0.1,0-0.2-0.1-0.3-0.1c-0.1,0-0.1,0-0.2-0.1l0.2-0.4l0.2,0c0.1,0,0.2,0.1,0.3,0.2l0.1,0.1c0.1,0.1,0.3,0.2,0.4,0.2
		c0.2,0,0.3-0.1,0.5-0.2c0.1-0.1,0.2-0.4,0.3-0.7l0-0.1h-0.4C149,10.1,148.8,10,148.7,10z M147.9,15.8l-0.3,0.2h-0.8
		c-0.2,0-0.3,0-0.4,0c-0.1,0-0.3-0.1-0.5-0.1l-0.4-0.1V14h2.5V15.8z M151.6,7h4l0,0c0.2-0.1,0.4-0.2,0.4-0.4
		c0.1-0.2,0.1-0.5,0.1-0.8V5.3c0-0.1,0-0.3-0.1-0.4L156,4.7c-0.1-0.1-0.2-0.2-0.3-0.2l-0.3,0.1l0,0l0,0c-0.1,0.1-0.1,0.2-0.1,0.3v0
		l0,0c0,0.1,0.1,0.3,0.2,0.4l0.2,0.2c0.1,0.1,0.1,0.2,0.1,0.2v0.3c0,0,0,0.1,0,0.1c-0.4-0.5-0.9-0.9-1.6-1.1
		c-0.3-0.1-0.6-0.2-1.1-0.3l0,0l0,0c-0.7,0.1-1.2,0.3-1.5,0.7c-0.3,0.3-0.5,0.6-0.5,1v0l0.1,0.3C151.1,6.9,151.3,7,151.6,7z M152,6
		c0.3-0.3,0.6-0.4,0.9-0.4l0.7,0.2c0.4,0.1,0.8,0.3,1,0.5h-2.8L152,6z M155.7,10c-0.1,0-0.2-0.1-0.3-0.1l-0.3-0.1l0,0h0
		c-0.3,0-0.5,0.3-0.8,0.9c-0.1,0.1-0.1,0.3-0.2,0.4c-0.1,0.2-0.1,0.3-0.1,0.4l0,0.1l0.1,0c0.4,0.1,0.6,0.2,0.8,0.2
		c0.2,0.1,0.2,0.1,0.2,0.2v3.7c-0.3,0.2-0.5,0.3-0.6,0.3l-0.5,0.1c-0.2,0-0.3,0-0.4,0c-0.1,0-0.3-0.1-0.5-0.1l-0.4-0.1l0-1.9v-1.7
		c0-0.2-0.3-0.4-0.7-0.7l-0.5-0.3l0.3-0.5l0.2,0c0.1,0,0.2,0.1,0.3,0.2l0.1,0.1c0.2,0.1,0.3,0.1,0.4,0.1c0.2,0,0.3-0.1,0.5-0.2
		c0.1-0.1,0.2-0.4,0.3-0.7l0-0.1h-0.4L152,9.8l-0.3-0.1l0,0h0c-0.3,0-0.5,0.3-0.8,0.9c-0.1,0.1-0.1,0.3-0.2,0.4
		c-0.1,0.2-0.1,0.3-0.1,0.4l0,0.1l0.1,0c0.5,0.1,0.7,0.2,0.8,0.3c0.1,0.1,0.1,0.2,0.1,0.2v4.1l0,0c0.2,0.2,0.3,0.3,0.5,0.3
		c0.4,0.2,1,0.3,1.7,0.3h0.8c0.5-0.1,1-0.3,1.3-0.5l0,0v-4.3c0-0.2-0.3-0.4-0.7-0.5l-0.5-0.1l0.3-0.6l0.2,0c0.1,0,0.2,0.1,0.3,0.2
		l0.1,0.1c0.1,0.1,0.3,0.2,0.4,0.2c0.2,0,0.3-0.1,0.5-0.2c0.1-0.1,0.2-0.4,0.3-0.7l0-0.1h-0.4C156,10.1,155.8,10,155.7,10z
		 M155.5,7.9c-0.2-0.2-0.4-0.3-0.5-0.3l-0.4-0.1l-0.2,0l-0.2,0.1l-0.5,0.2c-0.2,0.1-0.4,0.2-0.5,0.2c-0.5-0.4-1-0.5-1.3-0.5h0l0,0
		c-0.4,0.2-0.6,0.4-0.8,0.5c-0.1,0.1-0.2,0.2-0.2,0.3l0.2,0.7l0.4-0.4c0.2-0.2,0.3-0.2,0.4-0.2c0.4,0.1,0.8,0.2,1.1,0.4l0,0l0.4-0.1
		l0,0l0.4-0.3c0.1-0.1,0.2-0.1,0.3-0.1l0.2,0l0.3,0.1l0.4,0.2l0.5,0.1l0.1,0l0.5-0.9l-0.2,0L155.5,7.9z M185.9,8.6h4l0,0
		c0.2-0.1,0.3-0.2,0.4-0.4c0.1-0.2,0.1-0.5,0.1-0.9V6.9c0-0.1,0-0.3-0.1-0.4l-0.2-0.2c-0.1-0.1-0.2-0.2-0.3-0.2l-0.3,0.1l0,0l0,0
		c-0.1,0.1-0.1,0.2-0.1,0.3c0,0.2,0.1,0.3,0.2,0.4l0.2,0.2c0,0.1,0.1,0.2,0.1,0.2v0.3c0,0,0,0.1,0,0.1c-0.4-0.5-0.9-0.9-1.6-1.2
		c-0.3-0.1-0.6-0.2-1.1-0.3l0,0l0,0c-0.7,0.1-1.2,0.3-1.5,0.7c-0.3,0.3-0.5,0.6-0.5,1v0l0.1,0.3C185.4,8.5,185.6,8.6,185.9,8.6z
		 M186.3,7.6c0.3-0.3,0.6-0.4,0.9-0.4l0.7,0.2c0.4,0.1,0.8,0.3,1,0.5H186L186.3,7.6z M168.7,8.6h4l0,0l0.2-0.4l0,0
		c-0.3-0.7-0.9-1.2-1.8-1.5c-0.3-0.1-0.7-0.2-1.2-0.3l0,0l0,0c-0.7,0.1-1.2,0.3-1.5,0.7c-0.3,0.3-0.5,0.6-0.5,1v0l0.1,0.3
		C168.2,8.5,168.4,8.6,168.7,8.6z M169.1,7.6c0.3-0.3,0.6-0.4,0.9-0.4l0.7,0.2c0.4,0.2,0.8,0.3,1,0.5h-2.8L169.1,7.6z M190.4,10.2
		l-0.7-0.3c-0.1,0-0.2-0.1-0.2-0.1c-0.1,0-0.1,0-0.3-0.1c-0.3,0-0.5,0.3-0.8,0.9c-0.1,0.1-0.1,0.3-0.2,0.4c-0.1,0.2-0.1,0.3-0.1,0.4
		l0,0.1l0.1,0c0.3,0.1,0.6,0.2,0.8,0.3c0.1,0.1,0.2,0.1,0.3,0.2c0.1,0,0.1,0.1,0.1,0.1v3.5c-0.1,0.1-0.2,0.2-0.3,0.3
		c-0.1,0.1-0.2,0.1-0.4,0.1c-0.2,0-0.5,0-0.8-0.1l-0.3-0.1v-3.3c0-0.4-0.4-0.6-1.1-0.7l-1-0.1l-0.3,0c-0.1-0.2-0.2-0.3-0.5-0.4
		l-0.4-0.1l0.2-0.4c0.3,0,0.4,0.1,0.5,0.1L185,11c0.2,0.2,0.4,0.3,0.5,0.3c0.3,0,0.5-0.1,0.7-0.3c0.1-0.1,0.2-0.3,0.3-0.6l0-0.1
		l-0.7-0.2l-0.9-0.4l-0.3-0.1c-0.3,0-0.5,0.3-0.8,0.9c-0.1,0.1-0.1,0.3-0.2,0.4c0,0.2-0.1,0.3-0.1,0.4l0,0.1l0.6,0.1
		c0.1,0,0.3,0.1,0.3,0.1c0,0,0,0,0,0c-0.3,0.1-0.5,0.1-0.7,0.3c-0.1,0.1-0.2,0.3-0.2,0.5v3.9l0,0c0.1,0.2,0.3,0.3,0.5,0.4l0.4,0
		c0.3,0,0.5-0.2,0.8-0.6c0.2-0.4,0.4-0.8,0.4-1.1c-0.1-0.3-0.2-0.5-0.5-0.6c-0.2-0.1-0.4-0.1-0.6-0.1v-1.7c0-0.1,0.1-0.1,0.1-0.2
		c0.1,0,0.3-0.1,0.6-0.1l0.8,0.1c0.3,0.1,0.3,0.2,0.3,0.2v3.6l0,0c0.1,0.1,0.3,0.2,0.4,0.3c0.4,0.2,0.8,0.3,1.4,0.3h1
		c0.2,0,0.5-0.1,0.8-0.2c0.3-0.1,0.5-0.4,0.6-0.7l-0.1,0h0.1V12c0-0.4-0.3-0.6-0.8-0.7c-0.1,0-0.3-0.1-0.6-0.1l0.2-0.4l0,0h0.1
		l0.1,0.1l0.1,0.1l0.3,0.2c0.2,0.1,0.3,0.2,0.5,0.2c0.2,0,0.3-0.1,0.4-0.2c0.1-0.1,0.2-0.4,0.3-0.7l0-0.1H190.4z M184.6,15.1
		c0,0,0.1,0,0.2,0.1c0,0.2-0.1,0.4-0.4,0.7l-0.2,0.2v-1L184.6,15.1z M181.5,9.9c-0.1,0-0.2-0.1-0.3-0.1l-0.3-0.1
		c-0.3,0-0.5,0.3-0.8,0.9c-0.1,0.1-0.1,0.3-0.2,0.4c-0.1,0.2-0.1,0.3-0.1,0.4l0,0.1l0.1,0c0.4,0.1,0.7,0.2,0.9,0.3
		c0.1,0,0.1,0.1,0.1,0.1c0,0,0,0,0,0.1v3.4l-0.4,0.4c-0.1,0.1-0.3,0.1-0.4,0.1h-0.4c-0.2,0-0.4-0.1-0.5-0.2l-0.1-0.1v-5
		c0-0.4-0.4-0.6-1.1-0.8c-0.2-0.1-0.3-0.1-0.5-0.1c-0.2,0-0.3,0-0.5,0c-1.1,0-1.8,0.2-2.1,0.6c-0.1,0.1-0.1,0.3-0.1,0.4v5.5l0,0
		c0.1,0.1,0.2,0.2,0.3,0.3c0.1,0.1,0.2,0.1,0.4,0.1l0.3,0h0l0.6-0.5c0.4-0.4,0.7-0.7,0.8-1l0,0v-0.3c0-0.5-0.2-0.8-0.5-1
		c-0.2-0.1-0.5-0.2-0.9-0.2l-0.2,0v-2.8l0.2-0.1c0.2-0.1,0.3-0.1,0.4-0.1c0.1,0,0.3,0,0.6,0c0.2,0,0.5,0,0.8,0.1
		c0.3,0.1,0.4,0.2,0.4,0.3v5.3l0,0c0.3,0.1,0.5,0.2,0.6,0.3c0.5,0.2,1,0.3,1.4,0.3c0.3,0,0.7-0.1,0.9-0.2c0.3-0.1,0.5-0.3,0.7-0.6
		l0,0v-3.8c0-0.3-0.3-0.6-0.7-0.8l-0.5-0.2l0.3-0.5l0.1-0.1l0.3,0.3l0.1,0.1c0.1,0.1,0.3,0.1,0.4,0.1c0.2,0,0.3,0,0.5-0.1
		c0.1-0.1,0.2-0.3,0.3-0.6l0-0.1h-0.4C181.8,10,181.6,9.9,181.5,9.9z M175.7,14.6l0.3,0.1c0.1,0.1,0.1,0.1,0.1,0.2v0.1
		c0,0.2-0.1,0.4-0.2,0.5c-0.1,0.1-0.2,0.1-0.3,0.2L175.7,14.6z M166,10.4L166,10.4l-0.5-0.5c-0.1-0.1-0.2-0.1-0.4-0.1
		c-0.2,0-0.5,0.2-0.8,0.5c-0.2,0.2-0.4,0.4-0.5,0.4c-0.3-0.3-0.6-0.5-0.9-0.6c-0.3-0.1-0.6-0.2-1-0.2h0l-0.7,0.9
		c-0.1,0.1-0.1,0.2-0.2,0.4c-0.1,0.1-0.1,0.3-0.1,0.4v0.2l0.3,0.2c0.2,0.2,0.4,0.3,0.6,0.3l-0.2,0.1l0,0l-0.1,0.1l0,0V14
		c-0.4,0.3-0.7,0.5-0.9,0.8c-0.1,0.2-0.2,0.4-0.2,0.7c0,0.3,0.1,0.5,0.3,0.7c0.2,0.2,0.4,0.4,0.6,0.5l0.2,0l0.3,0
		c0.2,0,0.4-0.1,0.5-0.1c0.1-0.1,0.2-0.2,0.3-0.4l-0.1,0h0.1v-3.6l0.3-0.1c0.3-0.1,0.6-0.2,0.8-0.2c0.3,0,0.5,0,0.8,0.1l0.6,0.2v4.1
		h1v-4.4l0,0c-0.3-0.3-0.6-0.5-0.9-0.6c-0.3-0.1-0.6-0.1-1-0.1h-0.2c-0.3,0-0.6,0-0.8,0.1l-0.6,0.1c-0.2-0.1-0.3-0.2-0.5-0.3
		l-0.2-0.2c0-0.1,0.1-0.3,0.3-0.6c0.2,0,0.4,0.1,0.7,0.3c0.4,0.2,0.7,0.4,1,0.6l0.1,0l0.4-0.4c0.2-0.2,0.4-0.4,0.6-0.4l0.3,0.3
		c0.2,0.2,0.4,0.4,0.6,0.4l0,0l0,0c0.2,0,0.4-0.1,0.5-0.3c0.1-0.2,0.2-0.4,0.2-0.7v-0.1l-0.1,0C166.2,10.4,166.1,10.4,166,10.4z
		 M161.5,15.9c-0.1,0-0.1,0-0.2,0c-0.1,0-0.1-0.1-0.1-0.1v-0.2c0-0.2,0.1-0.3,0.2-0.4c0,0,0.1-0.1,0.1-0.1V15.9z M161.4,8.6h4l0,0
		c0.2-0.1,0.3-0.3,0.4-0.4C166,8,166,7.7,166,7.3V6.9c0-0.1,0-0.3-0.1-0.4l-0.2-0.2c-0.1-0.1-0.2-0.2-0.3-0.2l-0.3,0.1l0,0l0,0
		C165,6.3,165,6.4,165,6.5v0l0,0c0,0.1,0.1,0.3,0.2,0.4l0.2,0.2c0.1,0.1,0.1,0.2,0.1,0.2v0.3c0,0,0,0.1,0,0.1
		c-0.4-0.5-0.9-0.9-1.6-1.2c-0.3-0.1-0.6-0.2-1.1-0.3l0,0l0,0c-0.7,0.1-1.2,0.3-1.5,0.7c-0.3,0.3-0.5,0.6-0.5,1v0l0.1,0.3
		C160.9,8.5,161.1,8.6,161.4,8.6z M161.8,7.6c0.3-0.3,0.6-0.4,0.9-0.4l0.7,0.2c0.4,0.1,0.8,0.3,1,0.5h-2.8L161.8,7.6z M172.5,9.9
		c-0.1,0-0.2-0.1-0.2-0.1c-0.1,0-0.1,0-0.3-0.1c-0.3,0-0.5,0.3-0.8,0.9c-0.1,0.1-0.1,0.3-0.2,0.4c-0.1,0.2-0.1,0.3-0.1,0.4l0,0.1
		l0.1,0c0.4,0.1,0.7,0.2,0.9,0.3c0.1,0,0.1,0.1,0.2,0.1c0,0,0,0,0,0v0.8h-2.4V12c0-0.2-0.3-0.4-0.7-0.6c-0.1,0-0.2-0.1-0.3-0.1
		c-0.1,0-0.2,0-0.3-0.1l0.2-0.4l0.3,0.1c0.2,0.1,0.3,0.1,0.4,0.2l0.1,0.1c0.2,0.1,0.3,0.1,0.4,0.1c0.2,0,0.3-0.1,0.5-0.2
		c0.1-0.1,0.2-0.4,0.3-0.7l0-0.1l-0.5,0.1l-0.7-0.3c-0.1,0-0.2-0.1-0.2-0.1c-0.1,0-0.1,0-0.3-0.1c-0.3,0-0.5,0.3-0.8,0.9
		c-0.1,0.1-0.1,0.3-0.2,0.4c-0.1,0.2-0.1,0.3-0.1,0.4l0,0.1l0.9,0.3l0.2,0.2v2.2h-0.3c-0.2,0-0.3,0-0.4,0.1
		c-0.1,0.1-0.2,0.3-0.2,0.5c0,0.2,0,0.4,0.1,0.6c0,0.2,0.1,0.4,0.1,0.6c0.1,0.4,0.3,0.7,0.6,0.7l0.1,0l0.2,0h0.4l0,0
		c0.1,0,0.2-0.1,0.3-0.2l0,0v-2.9h2.4l0,0.6h-0.4c-0.2,0-0.3,0-0.4,0.1c-0.1,0.1-0.2,0.3-0.2,0.5c0,0.2,0,0.4,0.1,0.6
		c0,0.2,0.1,0.4,0.1,0.6c0.1,0.4,0.3,0.7,0.6,0.7l0.1,0l0.2,0l0.5-0.1c0.1-0.1,0.2-0.1,0.3-0.2l0,0v-4.6c0-0.3-0.3-0.4-0.7-0.5
		l-0.6-0.1l0.2-0.4l0.2,0.1l0.4,0.2l0.1,0.1c0.1,0.1,0.3,0.1,0.4,0.1c0.2,0,0.3-0.1,0.5-0.2c0.1-0.2,0.2-0.4,0.3-0.7l0-0.1l-0.5,0.1
		L172.5,9.9z M168.6,16c0-0.1-0.1-0.2-0.1-0.4c-0.1-0.2-0.1-0.4-0.1-0.6c0,0,0,0,0.1,0l0.2,0V16z M171.9,15.9
		c-0.1-0.3-0.2-0.6-0.2-0.9c0,0,0,0,0,0l0.2,0V15.9z M189.2,17.7c-0.1-0.1-0.3-0.1-0.4-0.1h0l-0.4,0.1c-0.2,0.1-0.3,0.2-0.3,0.3v0
		l0,0c0,0.1,0.1,0.2,0.2,0.2l0.1,0.1V20c0,0.2-0.1,0.2-0.1,0.3l0,0l0,0.1l0,0l0,0c0.1,0.1,0.2,0.2,0.3,0.2l0.4,0.1l0,0l0,0
		c0.1,0,0.2-0.1,0.3-0.2c0.1-0.1,0.1-0.3,0.1-0.5v-2C189.5,17.9,189.4,17.8,189.2,17.7z"/>
</g>
</svg>
