<svg width="173" height="14" viewBox="0 0 173 14" fill="none" xmlns="http://www.w3.org/2000/svg">
<path id="black" d="M35.7705 0C38.665 0.000470156 44.5322 4.59882 44.5322 7C44.5322 9.40118 38.665 13.9995 35.7705 14C32.8762 14 27.0078 9.4013 27.0078 7C27.0078 4.5987 32.8792 0 35.7705 0ZM6.38867 0.182617C9.17942 0.182662 11.4592 0.876002 13.2822 1.81641L12.542 3.42676C10.7312 2.50163 8.45145 2.00879 6.61328 2.00879C4.2734 2.00885 2.53279 2.61408 2.53223 3.59375C2.53223 6.25984 14.1162 5.59732 14.1162 9.91602C14.1157 12.2623 10.6549 13.8047 6.94824 13.8047C4.45584 13.8047 1.78385 13.0262 0.015625 11.9307L0.754883 10.3203C2.38003 11.3459 4.87254 11.9667 7.08203 11.9668C9.53203 11.9668 11.6416 11.1662 11.6416 10.1436C11.6408 7.75469 0 8.11059 0 3.76465C1.58509e-05 1.58857 3.38781 0.182617 6.38867 0.182617ZM72.2275 2.23438H61.207C61.2375 3.27218 61.2749 4.67234 61.2871 6.15137H68.7402V7.84668H61.2871C61.2658 10.5674 61.1592 13.0207 61.1592 13.459H59.1562C59.1562 12.9751 59.0254 10.0375 59.0254 6.99707C59.0254 3.95668 59.1562 1.03176 59.1562 0.547852H72.2275V2.23438ZM88.0508 0.547852C88.0508 1.03176 88.1816 3.95364 88.1816 6.99707C88.1816 10.0405 88.0508 12.9751 88.0508 13.459H86.0488C86.0488 12.9751 85.918 10.0375 85.918 6.99707C85.918 3.95668 86.0488 1.03176 86.0488 0.547852H88.0508ZM116.918 2.23438H110.399C110.436 3.49129 110.479 5.23809 110.479 6.99707C110.479 10.0405 110.348 12.9751 110.348 13.459H108.345C108.345 12.9751 108.214 10.0405 108.214 6.99707C108.214 5.23809 108.256 3.49129 108.293 2.23438H101.774V0.547852H116.918V2.23438ZM161.475 0.547852C161.475 1.03176 161.605 3.95668 161.605 6.99707C161.605 8.77887 161.56 10.5213 161.523 11.7598H172.547V13.459H159.473C159.473 12.9751 159.342 10.0375 159.342 6.99707C159.342 3.95668 159.473 1.03176 159.473 0.547852H161.475ZM143.984 2.23145H132.689C132.717 3.23272 132.753 4.56612 132.766 5.9873H140.815V7.68555L132.771 7.67871C132.762 9.21547 132.726 10.6795 132.692 11.7568H144.173V13.4551H130.642C130.642 12.9698 130.511 10.0336 130.511 6.99414C130.511 3.95374 130.642 1.02883 130.642 0.544922H143.984V2.23145ZM35.7705 1.69824C33.7892 1.69824 29.2627 5.48435 29.2627 7C29.2627 8.51565 33.7892 12.3018 35.7705 12.3018C37.752 12.3012 42.2773 8.51554 42.2773 7C42.2773 5.48446 37.752 1.69881 35.7705 1.69824Z" fill="black"/>
</svg>
