<?xml version="1.0" encoding="UTF-8"?>
<svg xmlns="http://www.w3.org/2000/svg" xmlns:xlink="http://www.w3.org/1999/xlink" viewBox="0 0 512 512">
  <defs>
    <path id="d" fill="none" d="M512.1 0v512.1H0V0h512.1Z"></path>
  </defs>
  <defs>
    <clipPath id="c">
      <use xlink:href="#a"></use>
    </clipPath>
    <clipPath id="e">
      <use xlink:href="#b"></use>
    </clipPath>
    <path id="a" d="M512 0v512H0V0h512Z"></path>
    <path id="b" d="M512.1 0v512.1H0V0h512.1Z"></path>
  </defs>
  <g clip-path="url(#c)">
    <path fill="none" d="M512 0v512H0V0h512Z"></path>
    <use xlink:href="#d"></use>
    <g clip-path="url(#e)">
      <use xlink:href="#d"></use>
      <path fill="#FFF" fill-rule="evenodd" d="M0 0h512.1v512.1H0V0Z"></path>
      <path fill="#2D3079" fill-rule="evenodd" d="m177 417.07 2.34-4.83c4.2-8.84 8.4-17.68 12.64-26.5.23-.47.77-1.11 1.16-1.1.73.01.73.85.82 1.44.7 4.58 1.4 9.16 2.08 13.74l1.95 13.26c.47 3.12.88 6.26 1.47 9.36.55 2.82 1.61 3.24 4.45 3.63.66.1 1.33.13 2 .2 0 .12.03.24.04.36-.32.1-.63.31-.95.3-3.73-.07-7.46-.17-11.2-.29a7.7 7.7 0 0 1-1.5-.18c-.36-.08-.54-.4-.14-.62.92-.5.83-1.34.73-2.12-.49-3.74-1.04-7.47-1.55-11.2l-1.5-11.22a9.3 9.3 0 0 0-.54-2.26c-.16.25-.35.5-.47.76-2.4 4.98-4.76 9.97-7.16 14.94-1.78 3.7-3.58 7.38-5.4 11.06-.76 1.52-1.17 1.55-1.96.06a423.95 423.95 0 0 1-6.1-11.8c-2.17-4.4-4.2-8.86-6.3-13.3-.17-.37-.4-.73-.6-1.09l-.22.04c-.13.85-.27 1.7-.38 2.55-.65 4.86-1.3 9.72-1.92 14.57-.3 2.29-.53 4.58-.78 6.87-.1 1 .36 1.76 1.33 2.02.88.23 1.79.31 2.68.46l.75.13.07.3c-.33.1-.66.32-.98.32-1.78 0-3.55-.1-5.32-.1-2.04 0-4.08.1-6.13.11-.32 0-.65-.2-.98-.3l.05-.34c.57-.07 1.13-.21 1.7-.21 1.42-.01 2.2-.84 2.5-2.09.4-1.69.68-3.4.96-5.12.55-3.4 1.06-6.82 1.57-10.23.46-3.01.9-6.03 1.35-9.05l1.16-7.7c.3-1.96.57-3.92.94-5.87.1-.52.51-.98.78-1.47.4.35.96.62 1.18 1.06 1.33 2.6 2.59 5.25 3.86 7.87l11.05 22.82c.1.21.25.4.47.75m205.1-.12c.77-1.58 1.46-2.96 2.13-4.36l7.65-16.05c1.75-3.66 3.48-7.31 5.26-10.95.23-.46.7-1.09 1.09-1.1.71-.04.77.77.85 1.33.43 2.8.82 5.62 1.24 8.42l1.2 8.02 1.54 10.48c.47 3.12.96 6.24 1.46 9.36.1.6.34 1.19.57 1.75a2.68 2.68 0 0 0 2.03 1.67c1.05.21 2.1.34 3.16.5l.76.12.07.27c-.33.13-.66.38-.99.37-4.03-.08-8.05-.2-12.08-.33-.3 0-.6-.26-.89-.4.17-.21.4-.4.5-.65.17-.42.4-.9.36-1.32-.16-1.68-.4-3.35-.63-5.02l-1.03-7.72c-.34-2.54-.7-5.09-1.06-7.63l-.56-4.06c-.03-.25-.1-.5-.14-.74l-.23-.05c-.4.83-.83 1.65-1.23 2.47-2.46 5.13-4.9 10.26-7.37 15.38-1.38 2.88-2.76 5.76-4.2 8.61-.27.55-.76.98-1.15 1.46-.4-.48-.92-.9-1.2-1.44-2.5-4.87-5-9.74-7.42-14.65-1.72-3.48-3.33-7.02-4.98-10.54-.11-.23-.24-.44-.36-.66l-.22.03c-.1.55-.22 1.1-.29 1.67-.4 3.08-.76 6.16-1.17 9.24-.4 3.07-.86 6.14-1.25 9.22a51.13 51.13 0 0 0-.34 4.09c-.05 1.03.32 1.57 1.32 1.84.87.24 1.8.29 2.69.46.23.05.44.25.66.38-.24.13-.49.36-.73.36-1.82-.01-3.65-.1-5.48-.1-2.04 0-4.08.1-6.12.11-.33 0-.67-.19-1-.3l.05-.33c.62-.08 1.24-.2 1.86-.24 1.05-.06 1.85-.52 2.14-1.52.4-1.35.72-2.74.95-4.13.56-3.4 1.06-6.81 1.57-10.22.51-3.4 1-6.78 1.52-10.16.5-3.34 1.03-6.67 1.55-10 .22-1.45.41-2.92.7-4.35.1-.41.5-.75.75-1.13.34.28.8.48 1 .83.84 1.58 1.62 3.2 2.4 4.82l12.45 25.7c.17.34.36.66.65 1.2m-130.9-31.16c.38-.09.76-.25 1.15-.25 3.17.03 6.34.12 9.51.13 1.75.01 3.5-.1 5.24-.12.37 0 .74.15 1.1.23l.04.32c-.29.1-.57.25-.86.3-.56.08-1.12.09-1.68.16-1.18.15-1.77.92-1.98 2.02-.12.6-.18 1.22-.19 1.84-.02 3.9 0 7.8-.03 11.7 0 .7.26.87.9.87 6.65-.02 13.3-.02 19.94 0 .63 0 .87-.22.86-.84v-9.85c0-.9-.07-1.82-.12-2.73-.12-2.04-1.13-3.03-3.23-3.14-.43-.03-.87.02-1.3-.03-.3-.03-.6-.16-.9-.25v-.35c.37-.1.75-.26 1.13-.26 3.17.03 6.34.12 9.51.13 1.75.01 3.5-.1 5.24-.12.37 0 .73.15 1.1.23l.02.33c-.28.1-.56.24-.86.3-.53.07-1.07.06-1.6.15-1.33.25-1.9.85-2.07 2.18-.1.77-.16 1.55-.17 2.33-.01 9.47-.02 18.95.01 28.42 0 1.36.16 2.73.33 4.09.2 1.55 1.12 2.22 3.05 2.32.67.04 1.34.06 2 .14.2.03.38.2.57.31-.19.15-.36.34-.58.43-.16.07-.37.02-.55.02-3.2-.04-6.4-.1-9.6-.12-1.8 0-3.6.08-5.4.12-.22 0-.46.04-.65-.03-.21-.08-.39-.27-.58-.42.18-.1.36-.27.56-.3.5-.08 1.01-.1 1.52-.15 1.13-.1 1.69-.5 1.95-1.6.24-1.04.46-2.1.47-3.17.1-4.84.1-9.68.16-14.52 0-.64-.25-.83-.87-.83-6.67.02-13.35.02-20.02 0-.65 0-.82.22-.81.85.03 4.33-.01 8.67.03 13 .01 1.34.15 2.68.34 4 .23 1.57 1.16 2.2 3.1 2.28.69.02 1.39.07 2.08.14.15.02.29.19.43.28l-.4.44c-.05.04-.16.02-.24.02-2.26-.03-4.52-.1-6.78-.1-2.5 0-5 .06-7.5.1-.59 0-1.18.04-1.77-.02-.24-.02-.45-.26-.68-.4.2-.11.4-.29.63-.33.47-.08.96-.1 1.44-.14 1.12-.09 1.73-.5 1.96-1.58.25-1.2.48-2.44.49-3.66.08-9.01.1-18.02.13-27.03 0-1.37-.05-2.75-.12-4.11-.11-2-1.13-2.97-3.19-3.1-.46-.02-.92.03-1.37-.02-.3-.03-.6-.18-.9-.27v-.34M121 395.32h-.35c-1.76 4.75-3.63 9.46-5.32 14.36h10.9l-5.24-14.36m9.44 30.85c.23-.19.3-.27.4-.31 1.19-.55 1.26-.7.8-1.93a974.55 974.55 0 0 0-4.17-10.98c-.1-.26-.53-.55-.81-.55-3.96-.03-7.92-.03-11.87 0-.25 0-.65.22-.73.44a375.9 375.9 0 0 0-3.67 10.19c-.44 1.3-.06 2.2.86 2.54.48.18 1.05.15 1.57.26.4.08 1.15.27 1.14.34-.1.77-.74.4-1.14.4-2.07.01-4.14-.08-6.21-.08-1.88 0-3.76.07-5.64.1-.22.01-.45.03-.64-.05-.13-.06-.25-.26-.27-.41-.02-.08.18-.25.3-.28.32-.08.64-.12.96-.12 2.64.11 4.14-1.42 5.05-3.64 2.07-5.02 4.08-10.08 6.1-15.13l8.1-20.22c.22-.57.45-1.15.77-1.67.2-.34.61-.85.85-.81.36.06.75.48.95.84.43.8.77 1.65 1.1 2.5l6.82 16.94c2.17 5.36 4.32 10.73 6.58 16.06.55 1.29 1.43 2.45 2.26 3.6a3.82 3.82 0 0 0 3.23 1.52c.45 0 .91.07 1.36.13.14.02.26.15.38.22-.1.14-.16.36-.3.41-.2.1-.46.11-.7.11H133.2c-.7 0-1.4-.09-2.09-.16-.19-.02-.37-.14-.69-.27m199.98-16.32-5.26-14.4-.32.02-5.38 14.38h10.96Zm4.37 16.4c.12-.09.23-.22.37-.27 1-.42 1.12-.65.76-1.6-1.38-3.67-2.78-7.33-4.15-11-.21-.58-.51-.82-1.17-.81-3.82.03-7.64.02-11.46.01-.44 0-.78.05-.95.53-1.12 3.04-2.25 6.08-3.35 9.13-.2.52-.3 1.08-.4 1.63-.2 1.1.4 1.9 1.52 2.04.5.07 1.02.05 1.52.13.28.04.53.22.79.34-.28.14-.56.4-.84.4-1.05.06-2.1.02-3.15.02h-7.49c-.61 0-1.23.04-1.85-.02-.27-.02-.51-.25-.77-.38.23-.13.46-.32.7-.36.6-.1 1.23-.07 1.84-.19a4.5 4.5 0 0 0 3.44-2.74c1.22-2.8 2.4-5.62 3.53-8.46 3.38-8.4 6.74-16.82 10.1-25.23.51-1.27 1.02-2.54 1.55-3.8.15-.34.35-.66.58-.95.29-.38.67-.38.96-.02.27.33.5.7.66 1.1 2.01 4.92 4.02 9.86 6.01 14.8 2.34 5.77 4.64 11.54 7 17.3a58.7 58.7 0 0 0 2.31 5.04c.82 1.55 1.9 2.89 3.78 3.23.68.13 1.39.12 2.08.2.18.03.33.19.5.29-.15.13-.28.31-.45.37a2.1 2.1 0 0 1-.71.09c-3.55 0-7.1.02-10.66-.01-.82 0-1.65-.16-2.48-.24v-.29"></path>
      <path fill="#2D3079" d="M233.2 427.63c-4.74-.06-8.96-.5-12.96-2.22-6.3-2.71-10.49-7.29-11.97-14.06-1.33-6.08-.56-11.87 3.03-17.08 3.15-4.55 7.63-7.1 12.99-8.16 3.86-.76 7.76-.8 11.65-.34 2.7.32 5.37.77 8.05 1.17.84.12.96.37.84 1.23-.12.97-.2 1.95-.23 2.92-.07 1.85-.09 3.7-.19 5.54-.01.29-.34.56-.53.83-.15-.26-.43-.52-.45-.79-.18-3.24-1.62-5.67-4.64-6.96a20.49 20.49 0 0 0-14.3-.82c-4.11 1.24-6.76 4.22-8.08 8.2-1.89 5.73-1.97 11.54.59 17.12 2.6 5.69 7.07 9.24 13.27 10.23 3.04.49 6.17.37 9.1-.88 2.43-1.02 3.82-2.97 4.54-5.46.12-.4.02-1.09.7-1.02.13 0 .35.75.3 1.12-.3 2.13-.67 4.26-1.01 6.38a2.17 2.17 0 0 1-1.84 1.92c-1.62.33-3.24.71-4.88.92-1.46.18-2.95.16-3.98.21"></path>
      <path fill="#AF2A44" d="m186.17 446.02-.47 3.25-1.14 8.74c-.14 1.05-.28 2.1-.34 3.16-.06 1.35.45 1.83 1.84 1.91.4.03.8.11 1.19.17l-.03.24h-8.5l-.02-.2c.37-.07.73-.19 1.1-.2.82-.02 1.33-.47 1.5-1.2.3-1.21.54-2.44.73-3.68.45-2.78.87-5.56 1.29-8.34l1.4-9.5c.19-1.22.39-2.44.61-3.65.05-.25.32-.46.48-.68.2.17.47.3.58.51.88 1.72 1.74 3.44 2.58 5.18l6.93 14.35c.16.33.36.63.62 1.07.2-.35.38-.6.51-.88l9.15-19.2c.18-.38.45-.73.67-1.09h.24c.16.33.4.66.46 1 .56 3.71 1.1 7.42 1.64 11.13l1.44 9.5c.15 1 .29 2 .49 3 .35 1.75 1.13 2.38 2.9 2.47.41.02.82.07 1.23.1l.04.22c-.2.07-.4.2-.6.2-2.55-.04-5.1-.1-7.64-.16-.25 0-.5-.15-.85-.26 1.25-1.03.57-2.23.45-3.31-.3-2.72-.74-5.43-1.1-8.14-.27-1.88-.51-3.77-.77-5.65-.02-.16-.1-.32-.2-.64-.23.38-.4.63-.54.9l-7.27 15.17c-.26.54-.53 1.06-.83 1.58-.38.65-.67.66-1.04 0a66.94 66.94 0 0 1-1.85-3.46l-6.42-13.19c-.07-.15-.16-.3-.25-.44l-.2.02"></path>
      <path fill="#AF2A44" fill-rule="evenodd" d="M320 447.95h.11v10.99c0 1.36.29 2.57 1.82 3.03.26.07.52.15.79.2 2.5.52 5.1.35 7.53-.46 2.5-.84 4.45-2.42 5.33-4.98.44-1.31.64-2.73.82-4.12a13.4 13.4 0 0 0-1.5-8.24c-2.63-4.8-8.21-6.37-13.08-5.96-1.82.16-1.81.27-1.81 2.1v7.44m-7.88-11.02c.31-.06.62-.16.92-.16 2.47.02 4.95.07 7.42.1 2.5.01 5-.1 7.5.06 4.22.27 8.07 1.47 10.73 5.09a12.3 12.3 0 0 1 2.42 6.8c.23 4.7-1.15 8.8-4.85 11.87-2.17 1.8-4.77 2.64-7.53 3.06-2.9.44-5.8.1-8.72-.09-2.17-.13-4.35-.04-6.53-.06-.28 0-.56-.05-.84-.08l-.01-.22c.33-.07.67-.18 1-.21 1.28-.13 1.63-.38 1.77-1.64.17-1.55.26-3.1.28-4.66.03-5.37 0-10.75-.02-16.12 0-.57-.05-1.14-.12-1.7-.12-1.08-.88-1.6-2.35-1.68l-1.04-.08-.03-.28m-40.64 12.1c-.08 1.98.2 3.98.91 5.9 1.54 4.08 4.2 6.84 8.75 7.44 3.86.5 7.1-1.23 8.52-4.9a17.76 17.76 0 0 0 .16-12.4c-1.56-4.61-5.82-7.86-11.06-7.05a7.57 7.57 0 0 0-6.06 4.46 14.13 14.13 0 0 0-1.22 6.55m9.83-12.82c2.42.06 4.74.44 6.95 1.4a11.5 11.5 0 0 1 7.05 8.65c.95 4.64.15 8.95-2.81 12.73a13.21 13.21 0 0 1-8.61 4.9c-2.7.44-5.42.36-8.04-.5a12.64 12.64 0 0 1-8.36-8.28 14.16 14.16 0 0 1 .89-11.75c2.02-3.8 5.27-5.99 9.48-6.74 1.14-.2 2.3-.27 3.45-.4m-43.58 6.91v3.27c-.02 2.18-.09 1.73 1.77 1.85 1.4.08 2.72-.12 3.55-1.5.57-.95.75-1.97.74-3.05-.02-3.52-1.98-5.59-5.22-5.54-.64.01-.87.25-.85.89.03 1.36 0 2.72 0 4.08m0 11.75h.14c0 1.85-.02 3.7.01 5.55.01.72.46 1.2 1.14 1.39.75.2 1.53.45 2.3.47 2.21.03 4.22-1.03 4.54-3.46.12-.93.08-1.91-.04-2.85-.37-2.97-2.7-6.76-7.36-6.37-.54.05-.74.2-.73.74.02 1.5 0 3.02 0 4.53m-7.18 8.38c.36-.06.73-.15 1.1-.17 1-.08 1.32-.28 1.56-1.25.17-.67.26-1.36.27-2.05.02-6.72.02-13.43.01-20.14 0-1.6-.66-2.26-2.3-2.36l-1.12-.06-.03-.3c.3-.05.6-.16.9-.16 2.43.01 4.86.13 7.28.06 1.79-.06 3.53-.02 5.28.45 4.25 1.15 4.86 5.43 2.88 8.38-.51.77-1.24 1.4-1.9 2.07-.16.17-.39.28-.73.53l.92.46c2.21 1.01 4.11 2.39 5.1 4.72 1.46 3.48-.29 7.68-3.78 9.27-2.04.93-4.18 1.1-6.37 1.04l-8.31-.15c-.25 0-.5-.06-.75-.09l-.01-.25m-79.2-19.92-.27-.04-3.48 9.3h7.13l-3.38-9.26m15.55 19.91c-.6.47-8.44.48-9.16.13.22-.3.59-.58.63-.91.05-.35-.2-.75-.33-1.12-.78-2.1-1.58-4.2-2.34-6.31-.18-.5-.43-.68-.97-.68-2.4.03-4.8 0-7.2.03-.27 0-.7.17-.77.36-.8 2.12-1.58 4.25-2.32 6.4-.1.26-.06.58-.08.87-.04.7.35.99.98 1.06l1.37.1.03.24c-.14.06-.29.17-.44.17-2.7.01-5.4.02-8.1.01-.15 0-.3-.08-.45-.13l-.01-.2c.25-.06.51-.19.76-.18 1.65.05 2.66-.81 3.25-2.24 1.4-3.43 2.78-6.87 4.16-10.3l5.48-13.62c.03-.06.03-.16.08-.2.2-.23.41-.55.66-.6.16-.04.49.31.6.55.4.9.8 1.8 1.16 2.73l6.7 16.62c.53 1.33 1.03 2.68 1.66 3.96.41.83.94 1.65 1.6 2.29.44.43 1.2.57 1.83.79.35.12.74.11 1.22.18m228.3-20.06c-.18.26-.3.4-.36.55l-3.07 8.17c-.25.65.02.77.6.77 1.75-.02 3.51 0 5.27-.01.97 0 1.04-.11.7-1.01-.74-2.04-1.47-4.08-2.23-6.12-.28-.75-.58-1.5-.92-2.35m1.04-7.2c.3.58.67 1.14.91 1.75 2.54 6.29 5.03 12.6 7.6 18.88.72 1.76 1.6 3.45 2.5 5.1.52.96 1.46 1.38 2.56 1.37.32 0 .64.1 1.1.17-.7.44-8.36.46-9.39.1.17-.12.34-.18.4-.3.16-.26.42-.6.35-.81-.89-2.52-1.83-5.01-2.78-7.5-.07-.17-.37-.36-.56-.36-2.55-.02-5.1-.02-7.65 0-.2 0-.5.23-.58.42-.8 2.1-1.6 4.19-2.3 6.31-.38 1.1-.16 2.03 1.37 2 .3 0 .62.08 1 .13-.44.42-8.45.5-9.3.09.44-.11.76-.26 1.07-.25 1.44.04 2.4-.68 2.99-1.92a74.79 74.79 0 0 0 1.7-4.02c2.62-6.55 5.23-13.12 7.86-19.67.2-.53.54-1 .81-1.51l.34.02m-272.53 8.17c-.08-.27-.21-.53-.22-.8a4.6 4.6 0 0 0-2.82-4.21 13.5 13.5 0 0 0-9.54-.7c-2.78.8-4.57 2.77-5.49 5.42a15.46 15.46 0 0 0-.08 10.26 11.41 11.41 0 0 0 8.5 7.8c2.12.52 4.3.4 6.37-.27 1.87-.6 2.93-2.02 3.47-3.87.06-.23.19-.45.29-.67l.25.04c0 .56.07 1.13-.01 1.68-.16 1.07-.4 2.13-.59 3.2-.14.8-.6 1.23-1.4 1.43a25.2 25.2 0 0 1-7.64.6 19.52 19.52 0 0 1-6.07-1.18c-4.75-1.88-7.75-5.2-8.61-10.35a13.78 13.78 0 0 1 2.11-10.4c2.19-3.19 5.33-4.92 9.11-5.53 3.99-.65 7.93-.25 11.86.55 1.32.28 1.27.27 1.15 1.67-.12 1.53-.13 3.06-.2 4.6-.01.25-.13.5-.2.74h-.25m234.45 19.08c.37-.05.74-.15 1.11-.17 1.12-.05 1.57-.43 1.66-1.56.12-1.5.25-3 .26-4.51.03-5.15.02-10.3 0-15.46 0-.82-.04-1.63-.12-2.44-.1-1.2-.74-1.72-2.1-1.82-.29-.02-.56-.06-.84-.09l-.02-.27c.3-.06.6-.16.9-.16 2.16.02 4.3.07 6.46.09.77 0 1.53-.08 2.3-.09.23 0 .46.12.7.18l-.02.23c-.5.08-.98.14-1.47.24-.92.2-1.26.56-1.35 1.5-.08.85-.15 1.72-.15 2.58l.01 16.87c0 .97.07 1.93.15 2.9.11 1.28.66 1.74 2.06 1.8l1.68.12-.02.31H358.2l-.05-.25"></path>
      <path fill="#2C3179" d="M262.47 291.85a108.52 108.52 0 0 0-10.43-18.34 111.3 111.3 0 0 1 10.1-5.7c69.5-34.79 77.6-95.11 77.6-95.11s13.36 26.82-4.66 61.65c-13.09 25.27-53.1 41.3-72.6 57.5"></path>
      <path fill="#2C3179" fill-rule="evenodd" d="M263.32 293.89c63.5-14.05 84.42-60.63 84.42-60.63s4.63 26.27-19.6 51.51c-13.47 14.03-39.03 19.48-59.61 25.28a104.42 104.42 0 0 0-5.2-16.16m-11.94-70.1a164.4 164.4 0 0 0-3.56 6.69c-.09.15-.16.31-.24.47l-.1.2c-1.6 3.1-10.24 18.4-11.77 22.09-2.3-2.53-3.63-3.63-6.17-6.28-4.64-4.83-5.69-11.88-4.64-20.48a62.32 62.32 0 0 1 8.52-24.47c49.8-82.94 22.2-154.12 22.2-154.12s34.32 23.85 35.7 78.26c.82 31.76-23.62 67.76-39.94 97.64"></path>
      <path fill="#2C3179" fill-rule="evenodd" d="M237.41 255.75a234.46 234.46 0 0 1 19.54-24.11v-.01c55.49-56.59 49-119.23 49-119.23s23.17 26.98 12.43 72.12c-7.89 33.12-50.15 63.2-67.61 87.48a192.06 192.06 0 0 0-13.36-16.25m33.24 59.75c45.49-5.99 57.44-18.76 57.44-18.76s-3.6 17.41-31.78 34.29c-24.02 14.37-25.6 12.03-25.6 12.03s1.37-6.97 1.12-16.16c-.19-6.7-1.18-11.4-1.18-11.4"></path>
      <path fill="#FFF" fill-rule="evenodd" d="m278.9 120.25 6.77-.37-4.5-5.3 1.65-6.74-6.22 2.66-5.75-3.78.64 6.95-5.19 4.39 6.62 1.63 2.54 6.5 3.44-5.94Zm-3.19-30.17 6.25-.35-4.15-4.89 1.52-6.22-5.75 2.46-5.3-3.5.6 6.42-4.8 4.05 6.1 1.5 2.35 6.02 3.19-5.5Zm-1.95 57.43 6.77-.37-4.5-5.3 1.65-6.74-6.23 2.66-5.74-3.79.64 6.96-5.2 4.38 6.62 1.63 2.55 6.52 3.44-5.95Z"></path>
      <path fill="#AF2A44" d="M218.82 344.87s-8.59-6-.81-7.48c0 0 21.02 2.12 26.06 1.25 0 0 22.44-3 23.05-20.33-10.99 27.03-63.7 12.37-49.94 11.87 16.3-.58 5.43-27.72-5.54-27.4-9.87.29-5.26 2.3-12.2 7.05-1.02.7-2.08 1.34-3.1 2.14-.02 1.08.01.76.35 2.11.2.79.44 1.53.8 2.5l-.06.24a2.65 2.65 0 0 1-.76-.6c-.71-.76-1.55-1.96-1.97-2.48-1.57-2.52-2.93-5.3-3.33-8.28-.13-1-.12-2 .03-3 .6-4.14 2.04-6.66 5.38-10.43.29-4.07 2.82-4.17 6.4-4.97-3.2.01-5.85-1.3-3.3-4.46 3.21-3.96 13.97-9.35 18.81-10.8a43.95 43.95 0 0 1 20.57-1.29c-31.21-22.28-14.72-62.81-14.72-62.81s-103.98 74.24-39.39 141.9c0 0 44.47 46.1 114.68-10.32 0 0-50.64 24.27-81.01 5.59"></path>
    </g>
  </g>
</svg>
